<svg width="23" height="23" viewBox="0 0 23 23" fill="none" xmlns="http://www.w3.org/2000/svg">
<path d="M17.9688 12.9375L16.9524 13.9538L18.8075 15.8125H12.9375C12.175 15.8125 11.4437 16.1154 10.9046 16.6546C10.3654 17.1937 10.0625 17.925 10.0625 18.6875C10.0625 19.45 10.3654 20.1813 10.9046 20.7204C11.4437 21.2596 12.175 21.5625 12.9375 21.5625H14.375V20.125H12.9375C12.5563 20.125 12.1906 19.9735 11.921 19.704C11.6515 19.4344 11.5 19.0687 11.5 18.6875C11.5 18.3063 11.6515 17.9406 11.921 17.671C12.1906 17.4015 12.5563 17.25 12.9375 17.25H18.8075L16.951 19.1094L17.9688 20.125L21.5625 16.5312L17.9688 12.9375Z" fill="#263057"/>
<path d="M7.1875 15.8125H2.875L2.87284 4.96369L11.091 10.6533C11.2112 10.7365 11.3539 10.781 11.5 10.781C11.6461 10.781 11.7888 10.7365 11.909 10.6533L20.125 4.96656V11.5H21.5625V4.3125C21.5621 3.93137 21.4105 3.56596 21.141 3.29645C20.8715 3.02695 20.5061 2.87538 20.125 2.875H2.875C2.49412 2.875 2.12882 3.02615 1.8593 3.29527C1.58977 3.56439 1.43807 3.92947 1.4375 4.31034V15.8125C1.43807 16.1936 1.5897 16.5589 1.85916 16.8283C2.12862 17.0978 2.49393 17.2494 2.875 17.25H7.1875V15.8125ZM18.543 4.3125L11.5 9.1885L4.45697 4.3125H18.543Z" fill="#263057"/>
</svg>
