<svg width="0" height="0" class="hidden">
  <symbol fill="none" xmlns="http://www.w3.org/2000/svg" viewBox="0 0 16 24" id="header-phone">
    <path d="M6.58071 17.9592C6.38843 17.9592 6.20402 18.0356 6.06806 18.1716C5.9321 18.3075 5.85571 18.4919 5.85571 18.6842C5.85571 18.8765 5.9321 19.0609 6.06806 19.1969C6.20402 19.3328 6.38843 19.4092 6.58071 19.4092H9.48071C9.67299 19.4092 9.8574 19.3328 9.99336 19.1969C10.1293 19.0609 10.2057 18.8765 10.2057 18.6842C10.2057 18.4919 10.1293 18.3075 9.99336 18.1716C9.8574 18.0356 9.67299 17.9592 9.48071 17.9592H6.58071Z" fill="#263057"></path>
    <path d="M3.68076 0.559204C2.91163 0.559204 2.17401 0.864739 1.63015 1.40859C1.0863 1.95245 0.780762 2.69008 0.780762 3.4592V20.8592C0.780762 21.6283 1.0863 22.366 1.63015 22.9098C2.17401 23.4537 2.91163 23.7592 3.68076 23.7592H12.3808C13.1499 23.7592 13.8875 23.4537 14.4314 22.9098C14.9752 22.366 15.2808 21.6283 15.2808 20.8592V3.4592C15.2808 2.69008 14.9752 1.95245 14.4314 1.40859C13.8875 0.864739 13.1499 0.559204 12.3808 0.559204H3.68076ZM2.23076 3.4592C2.23076 3.07464 2.38353 2.70583 2.65546 2.4339C2.92739 2.16197 3.2962 2.0092 3.68076 2.0092H12.3808C12.7653 2.0092 13.1341 2.16197 13.4061 2.4339C13.678 2.70583 13.8308 3.07464 13.8308 3.4592V20.8592C13.8308 21.2438 13.678 21.6126 13.4061 21.8845C13.1341 22.1564 12.7653 22.3092 12.3808 22.3092H3.68076C3.2962 22.3092 2.92739 22.1564 2.65546 21.8845C2.38353 21.6126 2.23076 21.2438 2.23076 20.8592V3.4592Z" fill="#263057"></path>
  </symbol>
    <symbol fill="none" xmlns="http://www.w3.org/2000/svg" viewBox="0 0 25 24" id="telegram">
    <path fill-rule="evenodd" clip-rule="evenodd" d="M25 12C25 18.627 19.4031 24 12.5 24C5.59687 24 0 18.627 0 12C0 5.373 5.59687 0 12.5 0C19.4031 0 25 5.373 25 12ZM12.9479 8.859C11.7323 9.344 9.30208 10.349 5.65833 11.873C5.06667 12.099 4.75625 12.32 4.72812 12.536C4.68021 12.902 5.15729 13.046 5.80521 13.241C5.89375 13.268 5.98542 13.295 6.07917 13.325C6.71771 13.524 7.57604 13.757 8.02188 13.766C8.42708 13.774 8.87917 13.614 9.37813 13.286C12.7823 11.079 14.5396 9.964 14.65 9.94C14.7281 9.923 14.8365 9.901 14.9094 9.964C14.9823 10.026 14.975 10.144 14.9677 10.176C14.9198 10.369 13.051 12.038 12.0823 12.902C11.7802 13.171 11.5667 13.362 11.5229 13.406C11.425 13.503 11.325 13.596 11.2292 13.685C10.6354 14.233 10.1917 14.645 11.2542 15.317C11.7646 15.64 12.1729 15.907 12.5802 16.173C13.025 16.464 13.4688 16.754 14.0437 17.116C14.1896 17.208 14.3292 17.303 14.4656 17.396C14.9833 17.751 15.449 18.069 16.024 18.019C16.3573 17.989 16.7031 17.688 16.8781 16.789C17.2917 14.663 18.1062 10.059 18.2948 8.161C18.3063 8.00341 18.2993 7.84509 18.274 7.689C18.2588 7.56293 18.1949 7.44693 18.0948 7.364C17.9458 7.247 17.7146 7.222 17.6104 7.224C17.1406 7.232 16.4198 7.473 12.9479 8.859Z" fill="white"></path>
  </symbol>
  <symbol fill="none" xmlns="http://www.w3.org/2000/svg" viewBox="0 0 25 25" id="viber">
    <path fill-rule="evenodd" clip-rule="evenodd" d="M3.14152 2.57085C5.554 0.357564 9.86729 0.0278829 11.8736 0.00365197C12.5408 -0.00806678 12.9556 0.019277 12.9556 0.019277C18.5462 0.0396017 21.0486 1.86303 21.6712 2.43647H21.6837C23.747 4.2271 24.8899 8.18569 24.1212 14.4685C23.438 20.0162 19.5649 20.9921 18.2705 21.3183C18.1454 21.3498 18.0445 21.3753 17.9728 21.3982C17.6189 21.5122 14.5462 22.281 10.5345 21.9474L9.07743 23.5951C8.94358 23.738 8.81895 23.8792 8.70018 24.0139C8.12547 24.6651 7.68742 25.1614 7.00639 24.9458C6.33915 24.7388 6.3759 23.7294 6.3759 23.7294V21.2068C0.512615 19.5505 0.58604 13.4677 0.647014 10.2287C0.720439 6.97788 1.34697 4.34897 3.14152 2.57085ZM12.3374 5.02265C12.3753 5.0073 12.416 4.99961 12.4569 5.00002C14.2998 5.00002 15.867 5.62189 17.1038 6.8305C17.7383 7.48609 18.233 8.26386 18.5575 9.11655C18.8822 9.96924 19.03 10.879 18.992 11.7906C18.9913 11.8731 18.9579 11.9519 18.8992 12.0099C18.8405 12.0678 18.7613 12.1002 18.6788 12.1V12.1125C18.5038 12.1125 18.3655 11.9703 18.3655 11.7992C18.3444 9.86252 17.7913 8.38128 16.6561 7.27892C16.1001 6.73939 15.4428 6.31524 14.7221 6.03098C14.0014 5.74671 13.2315 5.60795 12.4569 5.62267C12.2858 5.62267 12.1436 5.4844 12.1436 5.30939C12.1437 5.26847 12.1519 5.22796 12.1678 5.19022C12.1836 5.15247 12.2067 5.11823 12.2358 5.08948C12.265 5.06072 12.2995 5.038 12.3374 5.02265ZM7.69987 5.84221C7.89225 5.72851 8.11778 5.68412 8.33891 5.71642L8.33738 5.71486C8.54386 5.75408 8.72984 5.86504 8.86235 6.02814C9.46873 6.71998 10.0057 7.46967 10.4655 8.26642C10.7663 8.80002 10.571 9.34064 10.2905 9.56878L9.70457 10.0406C9.40379 10.2688 9.44438 10.7164 9.44438 10.7164C9.44438 10.7164 10.3116 14.0078 13.5624 14.8383L13.5749 14.8305C13.5749 14.8305 14.0108 14.8711 14.2507 14.5781L14.7186 13.9883C14.9382 13.6953 15.4795 13.5203 16.0124 13.8094C16.808 14.2724 17.5575 14.8106 18.2507 15.4164C18.5967 15.7055 18.678 16.1328 18.4382 16.5844V16.5922C18.1826 17.0411 17.8554 17.4451 17.4694 17.7883C17.1526 18.0759 16.7485 18.2492 16.3218 18.2805C16.1874 18.2805 16.0538 18.2602 15.9069 18.2156V18.2078C15.4061 18.061 14.5718 17.7071 13.1968 16.9586C11.9937 16.2933 10.8805 15.477 9.88426 14.5297L9.85142 14.5016L9.82328 14.4688L9.77879 14.436L9.75065 14.3953C8.80607 13.4027 7.99363 12.2922 7.33348 11.0914C6.82096 10.2367 6.40141 9.32892 6.08036 8.38518L6.06004 8.37267C6.00297 8.18987 5.98661 7.99846 6.01078 7.80706C6.05143 7.48595 6.2061 7.15236 6.49125 6.82268C6.83439 6.43496 7.2368 6.10404 7.68345 5.84221H7.69987ZM13.0014 7.27111C12.5827 7.27111 12.5827 6.64455 12.9975 6.64455H13.042C14.3975 6.73752 15.4593 7.20549 16.2202 8.03986C16.9772 8.87424 17.3631 9.91564 17.335 11.157C17.3344 11.2399 17.3012 11.3193 17.2426 11.3779C17.184 11.4365 17.1047 11.4697 17.0218 11.4703L17.0093 11.4539C16.9516 11.4536 16.8955 11.4376 16.8471 11.408C16.8264 11.3954 16.807 11.3804 16.7895 11.3631C16.731 11.3053 16.6974 11.2268 16.696 11.1446C16.727 10.6584 16.6602 10.1709 16.4994 9.71099C16.3387 9.2511 16.0873 8.82815 15.7601 8.46721C15.4013 8.09639 14.9731 7.79989 14.4997 7.59466C14.0264 7.38942 13.5173 7.27949 13.0014 7.27111ZM13.4905 8.96799C13.0671 8.95549 13.0835 8.31643 13.5108 8.32892L13.5233 8.3297C14.8741 8.40236 15.6351 9.1883 15.7085 10.5836C15.711 10.6254 15.7052 10.6672 15.6914 10.7066C15.6776 10.7461 15.656 10.7824 15.628 10.8135C15.6 10.8445 15.5661 10.8697 15.5283 10.8875C15.4905 10.9053 15.4494 10.9154 15.4077 10.9172H15.3952C15.3139 10.9168 15.2361 10.8846 15.1783 10.8275C15.1204 10.7704 15.0873 10.693 15.0858 10.6117C15.0202 9.54143 14.5202 9.02111 13.4905 8.96799Z" fill="white"></path>
  </symbol>
  <symbol fill="none" xmlns="http://www.w3.org/2000/svg" viewBox="0 0 26 26" id="vk">
    <path d="M13 0.519531C6.10742 0.519531 0.52002 6.10693 0.52002 12.9995C0.52002 19.8921 6.10742 25.4795 13 25.4795C19.8926 25.4795 25.48 19.8921 25.48 12.9995C25.48 6.10693 19.8926 0.519531 13 0.519531ZM17.7996 14.5998C17.7996 14.5998 18.9033 15.6892 19.175 16.1949C19.1828 16.2053 19.1867 16.2157 19.1893 16.2209C19.2998 16.4068 19.3258 16.5511 19.2712 16.659C19.1802 16.8384 18.8682 16.9268 18.7616 16.9346H16.8116C16.6764 16.9346 16.393 16.8995 16.0498 16.6629C15.7859 16.4783 15.5259 16.1754 15.2724 15.8803C14.8941 15.4409 14.5665 15.0613 14.2363 15.0613C14.1944 15.0613 14.1527 15.0678 14.1128 15.0808C13.8632 15.1614 13.5434 15.5176 13.5434 16.4666C13.5434 16.763 13.3094 16.9333 13.1443 16.9333H12.2512C11.947 16.9333 10.3623 16.8267 8.95832 15.346C7.23972 13.5325 5.69272 9.89513 5.67972 9.86133C5.58222 9.62603 5.78372 9.49993 6.00342 9.49993H7.97292C8.23552 9.49993 8.32132 9.65983 8.38112 9.80153C8.45132 9.96663 8.70872 10.6231 9.13122 11.3615C9.81632 12.5653 10.2362 13.0541 10.5729 13.0541C10.6361 13.0534 10.6981 13.0373 10.7536 13.0073C11.193 12.7629 11.1111 11.1964 11.0916 10.8714C11.0916 10.8103 11.0903 10.1707 10.8654 9.86393C10.7042 9.64163 10.4299 9.55713 10.2635 9.52593C10.3309 9.433 10.4196 9.35764 10.5222 9.30623C10.8238 9.15543 11.3672 9.13333 11.9067 9.13333H12.207C12.792 9.14113 12.9428 9.17883 13.1547 9.23213C13.5837 9.33483 13.5928 9.61173 13.5551 10.5594C13.5434 10.8285 13.5317 11.1327 13.5317 11.4915C13.5317 11.5695 13.5278 11.6527 13.5278 11.7411C13.5148 12.2234 13.4992 12.7707 13.8398 12.9956C13.8842 13.0235 13.9356 13.0383 13.988 13.0385C14.1063 13.0385 14.4625 13.0385 15.4271 11.3836C15.7246 10.851 15.9831 10.2975 16.2006 9.72743C16.2201 9.69363 16.2773 9.58963 16.3449 9.54933C16.3948 9.5239 16.4501 9.51096 16.5061 9.51163H18.8214C19.0736 9.51163 19.2465 9.54933 19.279 9.64683C19.3362 9.80153 19.2686 10.2734 18.2117 11.7047L17.7398 12.3274C16.7817 13.5832 16.7817 13.6469 17.7996 14.5998Z" fill="white"></path>
  </symbol>
  <symbol fill="none" xmlns="http://www.w3.org/2000/svg" viewBox="0 0 24 24" id="wa">
    <path d="M0.00481605 24L1.62722 18.0384C0.558181 16.2058 -0.00346876 14.1216 1.61187e-05 12C1.61187e-05 5.3724 5.37241 0 12 0C18.6276 0 24 5.3724 24 12C24 18.6276 18.6276 24 12 24C9.87934 24.0034 7.796 23.4422 5.96401 22.374L0.00481605 24ZM7.66921 6.3696C7.51425 6.37922 7.36282 6.42003 7.22401 6.4896C7.09384 6.56331 6.97501 6.65547 6.87121 6.7632C6.72721 6.8988 6.64561 7.0164 6.55801 7.1304C6.11451 7.70759 5.87594 8.4161 5.88001 9.14399C5.88241 9.73199 6.03601 10.3044 6.27601 10.8396C6.76681 11.922 7.57441 13.068 8.64121 14.13C8.89801 14.3856 9.14881 14.6424 9.41881 14.8812C10.7429 16.0469 12.3207 16.8876 14.0268 17.3364L14.7096 17.4408C14.9316 17.4528 15.1536 17.436 15.3768 17.4252C15.7263 17.4071 16.0675 17.3125 16.3764 17.148C16.5336 17.067 16.6869 16.979 16.836 16.884C16.836 16.884 16.8876 16.8504 16.986 16.776C17.148 16.656 17.2476 16.5708 17.382 16.4304C17.4816 16.3272 17.568 16.206 17.634 16.068C17.7276 15.8724 17.8212 15.4992 17.8596 15.1884C17.8884 14.9508 17.88 14.8212 17.8764 14.7408C17.8716 14.6124 17.7648 14.4792 17.6484 14.4228L16.95 14.1096C16.95 14.1096 15.906 13.6548 15.2688 13.3644C15.2016 13.3351 15.1296 13.3184 15.0564 13.3152C14.9743 13.3068 14.8913 13.316 14.8131 13.3423C14.7349 13.3686 14.6632 13.4113 14.6028 13.4676V13.4652C14.5968 13.4652 14.5164 13.5336 13.6488 14.5848C13.599 14.6517 13.5304 14.7023 13.4518 14.7301C13.3731 14.7578 13.288 14.7616 13.2072 14.7408C13.129 14.7199 13.0524 14.6934 12.978 14.6616C12.8292 14.5992 12.7776 14.5752 12.6756 14.5308L12.6696 14.5284C11.9831 14.2287 11.3475 13.8238 10.7856 13.3284C10.6344 13.1964 10.494 13.0524 10.35 12.9132C9.8779 12.4611 9.46647 11.9496 9.12601 11.3916L9.05521 11.2776C9.00436 11.201 8.96324 11.1184 8.93281 11.0316C8.88721 10.8552 9.00601 10.7136 9.00601 10.7136C9.00601 10.7136 9.29761 10.3944 9.43321 10.2216C9.54612 10.078 9.65146 9.92858 9.74881 9.77399C9.89041 9.54599 9.93481 9.31199 9.86041 9.13079C9.52441 8.30999 9.17641 7.49279 8.81881 6.6816C8.74801 6.5208 8.53801 6.4056 8.34721 6.3828C8.28241 6.3756 8.21761 6.3684 8.15281 6.3636C7.99166 6.35559 7.83017 6.35719 7.66921 6.3684V6.3696Z" fill="white"></path>
  </symbol>


  <symbol  xmlns="http://www.w3.org/2000/svg" viewBox="0 0 136 18" id="sitex-logo-white">
  
      <circle cx="35.9766" cy="1.67733" r="1.67733" fill="white"></circle>
      <path d="M11.0564 9.25208C11.0564 12.1658 12.7817 14.5237 16.0405 14.5237C20.4494 14.5237 20.737 10.5939 20.737 10.5939H18.0533C18.0533 10.5939 17.9574 12.5109 16.0405 12.5109C14.3344 12.5109 13.7401 11.054 13.7401 9.25208C13.7401 7.45015 14.3344 5.99327 16.0405 5.99327C17.9574 5.99327 18.0533 7.91021 18.0533 7.91021H20.737C20.737 7.91021 20.4494 3.98047 16.0405 3.98047C12.7817 3.98047 11.0564 6.33832 11.0564 9.25208Z" ></path>
      <path fill-rule="evenodd" clip-rule="evenodd" d="M24.2842 7.33513C24.3225 6.26164 24.9551 5.80157 26.1053 5.80157C27.1596 5.80157 27.7347 6.26164 27.7347 7.04759C27.7347 7.97461 26.6419 8.22198 25.312 8.52305C25.0468 8.58308 24.7723 8.64523 24.495 8.71533C22.8465 9.13706 21.3129 9.98052 21.3129 11.84C21.3129 13.6802 22.6548 14.5237 24.4759 14.5237C27.0254 14.5237 27.6388 12.3192 27.6388 12.3192H27.7347V14.2361H30.4184V7.43098C30.4184 4.8431 28.5015 3.98047 26.1053 3.98047C23.8049 3.98047 21.7538 4.78559 21.6004 7.33513H24.2842ZM27.7347 9.21374C27.7347 10.6898 27.2554 12.7984 25.4343 12.7984C24.5717 12.7984 24.035 12.3192 24.035 11.5524C24.035 10.6706 24.7634 10.2297 25.626 10.0189L25.7291 9.99314C26.4721 9.80802 27.3134 9.59838 27.7347 9.21374Z" fill="white"></path>
      <path d="M40.6674 4.26801H37.9836V9.44377C37.9836 11.4566 37.2168 12.3192 35.7791 12.3192C34.5331 12.3192 34.0539 11.5524 34.0539 9.82716V4.26801H31.3701V10.4022C31.3701 12.7026 32.1369 14.5237 34.9165 14.5237C37.121 14.5237 37.9836 12.6067 37.9836 12.6067H38.0795V14.2361H40.6674V4.26801Z" fill="white"></path>
      <path d="M41.8234 6.28075V4.1721H50.833V6.28075H47.5742V14.4757H44.8905V6.28075H41.8234Z" fill="white"></path>
      <path d="M57.0161 9.64729H61.2334C61.1759 11.315 60.5433 12.6186 58.9331 12.6186C57.0161 12.6186 56.9203 10.7016 56.9203 10.7016H54.2366C54.2366 10.7016 54.5241 14.6314 58.9331 14.6314C62.1919 14.6314 63.9172 12.2735 63.9172 9.35975C63.9172 6.44598 62.1919 4.08813 58.9331 4.08813C54.5241 4.08813 54.2366 8.01788 54.2366 8.01788H56.9203C56.9203 8.01788 57.0161 6.10093 58.9331 6.10093C60.4858 6.10093 61.0992 7.30861 61.2143 8.88051H57.0161V9.64729Z" ></path>
      <path d="M64.7783 14.3438H67.462V11.315L68.5547 10.184L71.0851 14.3438H74.363L70.4141 8.26708L74.1713 4.37568H71.0084L67.462 8.40127V4.37568H64.7783V14.3438Z" fill="white"></path>
      <path d="M73.9864 9.35975C73.9864 12.2735 75.7116 14.6314 78.9705 14.6314C83.3794 14.6314 83.667 10.7016 83.667 10.7016H80.9832C80.9832 10.7016 80.8874 12.6186 78.9705 12.6186C77.2644 12.6186 76.6701 11.1617 76.6701 9.35975C76.6701 7.55781 77.2644 6.10093 78.9705 6.10093C80.8874 6.10093 80.9832 8.01788 80.9832 8.01788H83.667C83.667 8.01788 83.3794 4.08813 78.9705 4.08813C75.7116 4.08813 73.9864 6.44598 73.9864 9.35975Z" ></path>
      <path d="M84.5281 14.3438H87.2118V9.16805C87.2118 7.15525 87.9786 6.29263 89.4163 6.29263C90.6623 6.29263 91.1416 7.05941 91.1416 8.78466V14.3438H93.8253V8.20958C93.8253 5.90924 93.0585 4.08813 90.279 4.08813C88.0745 4.08813 87.2118 6.00508 87.2118 6.00508H87.116V4.37568H84.5281V14.3438Z" ></path>
      <path d="M94.6909 9.35975C94.6909 12.2735 96.3203 14.6314 99.675 14.6314C103.796 14.6314 104.372 11.085 104.372 11.085H101.688C101.688 11.085 101.4 12.6186 99.7708 12.6186C98.1606 12.6186 97.5089 11.4684 97.3938 9.93483H104.448C104.448 9.93483 104.467 9.58978 104.467 9.35975C104.467 6.44598 102.953 4.08813 99.675 4.08813C96.397 4.08813 94.6909 6.44598 94.6909 9.35975ZM99.675 6.10093C100.998 6.10093 101.534 6.98273 101.707 8.20958H97.4705C97.7006 6.98273 98.3523 6.10093 99.675 6.10093Z" ></path>
      <path d="M105.326 17.7943H108.01V13.2895H108.106C108.106 13.2895 108.968 14.6314 111.077 14.6314C113.953 14.6314 115.39 12.1393 115.39 9.35975C115.39 6.58017 113.953 4.08813 111.077 4.08813C108.873 4.08813 108.01 5.71754 108.01 5.71754H107.914V4.37568H105.326V17.7943ZM107.914 9.35975C107.914 7.55781 108.681 6.10093 110.31 6.10093C111.94 6.10093 112.707 7.55781 112.707 9.35975C112.707 11.1617 111.94 12.6186 110.31 12.6186C108.681 12.6186 107.914 11.1617 107.914 9.35975Z"></path>
      <path d="M115.821 4.2799V6.38854H118.888V14.5835H121.572V13.026C121.572 13.026 121.572 11.9477 121.572 11.0851V6.38854H124.83V4.2799H115.821Z" fill="white"></path>
      <path d="M136 9.07472H132.375C132.273 9.07472 132.217 8.95986 132.157 8.87626L128.853 4.28226C128.795 4.19733 128.853 4.08813 128.945 4.08813H132.305C132.363 4.08813 132.421 4.1124 132.455 4.16093L135.85 8.98979C135.885 9.03832 135.942 9.07472 136 9.07472Z" ></path>
      <path d="M132.26 9.72022C132.294 9.67344 132.34 9.65005 132.386 9.65005H136C135.942 9.65005 135.885 9.67344 135.85 9.72022L132.444 14.3747C132.409 14.4215 132.352 14.4448 132.294 14.4448H128.945C128.853 14.4448 128.795 14.3396 128.853 14.2577L132.26 9.72022Z" ></path>
      <path d="M0 9.07472H3.62542C3.7273 9.07472 3.78267 8.95986 3.8428 8.87626L7.14692 4.28226C7.20465 4.19733 7.14692 4.08813 7.05455 4.08813H3.69469C3.63696 4.08813 3.57923 4.1124 3.54459 4.16093L0.150095 8.98979C0.115458 9.03832 0.0577296 9.07472 0 9.07472Z" ></path>
      <path d="M3.74037 9.72022C3.70585 9.67344 3.65981 9.65005 3.61378 9.65005H0C0.0575442 9.65005 0.115091 9.67344 0.149617 9.72022L3.55624 14.3747C3.59076 14.4215 3.6483 14.4448 3.70585 14.4448H7.05492C7.14699 14.4448 7.20454 14.3396 7.14699 14.2577L3.74037 9.72022Z" ></path>
  
  </symbol>

  <symbol fill="none" xmlns="http://www.w3.org/2000/svg" viewBox="0 0 26 32" id="doc">
    <path d="M17.3031 1.00771L24.9822 8.68675M6.71881 15.2049H19.2634M6.71881 24.5058H19.2634M6.71881 19.8554H19.2634M2.49927 1.00771C2.0982 1.01757 1.71689 1.18385 1.43675 1.47104C1.15662 1.75823 0.999879 2.14356 1 2.54475V29.5255C0.999874 29.9265 1.15651 30.3117 1.43648 30.5989C1.71645 30.8861 2.09757 31.0524 2.4985 31.0625H23.4837C23.8913 31.0625 24.2823 30.9006 24.5705 30.6123C24.8588 30.3241 25.0207 29.9331 25.0207 29.5255V8.68675H18.8718C18.4706 8.67689 18.0891 8.5105 17.809 8.22315C17.5288 7.93579 17.3722 7.55026 17.3725 7.14894V1L2.49927 1.00771Z" stroke="#6984F0" stroke-linecap="round" stroke-linejoin="round"></path>
  </symbol>

  <symbol fill="none" xmlns="http://www.w3.org/2000/svg" viewBox="0 0 16 24" id="footer-phone">
    <path d="M6.58071 17.9592C6.38843 17.9592 6.20402 18.0356 6.06806 18.1716C5.9321 18.3075 5.85571 18.4919 5.85571 18.6842C5.85571 18.8765 5.9321 19.0609 6.06806 19.1969C6.20402 19.3328 6.38843 19.4092 6.58071 19.4092H9.48071C9.67299 19.4092 9.8574 19.3328 9.99336 19.1969C10.1293 19.0609 10.2057 18.8765 10.2057 18.6842C10.2057 18.4919 10.1293 18.3075 9.99336 18.1716C9.8574 18.0356 9.67299 17.9592 9.48071 17.9592H6.58071Z" fill="#ffffff"></path>
    <path d="M3.68076 0.559204C2.91163 0.559204 2.17401 0.864739 1.63015 1.40859C1.0863 1.95245 0.780762 2.69008 0.780762 3.4592V20.8592C0.780762 21.6283 1.0863 22.366 1.63015 22.9098C2.17401 23.4537 2.91163 23.7592 3.68076 23.7592H12.3808C13.1499 23.7592 13.8875 23.4537 14.4314 22.9098C14.9752 22.366 15.2808 21.6283 15.2808 20.8592V3.4592C15.2808 2.69008 14.9752 1.95245 14.4314 1.40859C13.8875 0.864739 13.1499 0.559204 12.3808 0.559204H3.68076ZM2.23076 3.4592C2.23076 3.07464 2.38353 2.70583 2.65546 2.4339C2.92739 2.16197 3.2962 2.0092 3.68076 2.0092H12.3808C12.7653 2.0092 13.1341 2.16197 13.4061 2.4339C13.678 2.70583 13.8308 3.07464 13.8308 3.4592V20.8592C13.8308 21.2438 13.678 21.6126 13.4061 21.8845C13.1341 22.1564 12.7653 22.3092 12.3808 22.3092H3.68076C3.2962 22.3092 2.92739 22.1564 2.65546 21.8845C2.38353 21.6126 2.23076 21.2438 2.23076 20.8592V3.4592Z" fill="#ffffff"></path>
  </symbol>

    <symbol fill="none" xmlns="http://www.w3.org/2000/svg" viewBox="0 0 14 24" id="prev">
    <path fill-rule="evenodd" clip-rule="evenodd" d="M12.8696 0.880477C12.9511 0.961757 13.0157 1.05831 13.0598 1.16462C13.104 1.27092 13.1267 1.38488 13.1267 1.49998C13.1267 1.61507 13.104 1.72903 13.0598 1.83534C13.0157 1.94164 12.9511 2.0382 12.8696 2.11948L2.98735 12L12.8696 21.8805C13.0339 22.0448 13.1262 22.2676 13.1262 22.5C13.1262 22.7323 13.0339 22.9552 12.8696 23.1195C12.7053 23.2838 12.4825 23.3761 12.2501 23.3761C12.0177 23.3761 11.7949 23.2838 11.6306 23.1195L1.1306 12.6195C1.04911 12.5382 0.984463 12.4416 0.940352 12.3353C0.89624 12.229 0.873535 12.1151 0.873535 12C0.873535 11.8849 0.89624 11.7709 0.940352 11.6646C0.984463 11.5583 1.04911 11.4618 1.1306 11.3805L11.6306 0.880477C11.7119 0.798992 11.8084 0.734342 11.9147 0.69023C12.021 0.646119 12.135 0.623413 12.2501 0.623413C12.3652 0.623413 12.4792 0.646119 12.5855 0.69023C12.6918 0.734342 12.7883 0.798992 12.8696 0.880477Z" fill="#6984F0"></path>
  </symbol>
  


    <symbol fill="none" xmlns="http://www.w3.org/2000/svg" viewBox="0 0 14 15" id="detail">
    <path d="M12.25 1.78845H4.375C4.14315 1.78914 3.92099 1.88155 3.75705 2.0455C3.5931 2.20944 3.50069 2.4316 3.5 2.66345V8.78845C3.50069 9.0203 3.5931 9.24246 3.75705 9.40641C3.92099 9.57035 4.14315 9.66276 4.375 9.66345H12.25C12.4819 9.66276 12.704 9.57035 12.868 9.40641C13.0319 9.24246 13.1243 9.0203 13.125 8.78845V2.66345C13.1243 2.4316 13.0319 2.20944 12.868 2.0455C12.704 1.88155 12.4819 1.78914 12.25 1.78845V1.78845ZM12.25 8.78845H4.375V2.66345H12.25V8.78845Z" fill="white"></path>
    <path d="M7.875 11.4135H1.75V7.03845H2.625V6.16345H1.75C1.51815 6.16414 1.29599 6.25655 1.13205 6.4205C0.968102 6.58444 0.875692 6.8066 0.875 7.03845V11.4135C0.875692 11.6453 0.968102 11.8675 1.13205 12.0314C1.29599 12.1954 1.51815 12.2878 1.75 12.2885H7.875C8.10685 12.2878 8.32901 12.1954 8.49295 12.0314C8.6569 11.8675 8.74931 11.6453 8.75 11.4135V10.5385H7.875V11.4135Z" fill="white"></path>
  </symbol>
  <symbol fill="none" xmlns="http://www.w3.org/2000/svg" viewBox="0 0 14 15" id="detail2">
    <path d="M12.25 1.78809H4.375C4.14315 1.78878 3.92099 1.88119 3.75705 2.04513C3.5931 2.20908 3.50069 2.43123 3.5 2.66309V8.78809C3.50069 9.01994 3.5931 9.2421 3.75705 9.40604C3.92099 9.56998 4.14315 9.66239 4.375 9.66309H12.25C12.4819 9.66239 12.704 9.56998 12.868 9.40604C13.0319 9.2421 13.1243 9.01994 13.125 8.78809V2.66309C13.1243 2.43123 13.0319 2.20908 12.868 2.04513C12.704 1.88119 12.4819 1.78878 12.25 1.78809ZM12.25 8.78809H4.375V2.66309H12.25V8.78809Z" fill="#263057"></path>
    <path d="M7.875 11.4131H1.75V7.03809H2.625V6.16309H1.75C1.51815 6.16378 1.29599 6.25619 1.13205 6.42013C0.968102 6.58408 0.875692 6.80623 0.875 7.03809V11.4131C0.875692 11.6449 0.968102 11.8671 1.13205 12.031C1.29599 12.195 1.51815 12.2874 1.75 12.2881H7.875C8.10685 12.2874 8.32901 12.195 8.49295 12.031C8.6569 11.8671 8.74931 11.6449 8.75 11.4131V10.5381H7.875V11.4131Z" fill="#263057"></path>
  </symbol>

  <symbol fill="none" xmlns="http://www.w3.org/2000/svg" viewBox="0 0 22 23" id="speed">
    <path d="M9.43701 11.0395C9.43701 12.001 10.2112 12.7808 11.165 12.7808C11.8351 12.7808 12.4093 12.3927 12.696 11.8311L12.7008 11.8355L15.8552 6.10075L10.3176 9.52265L10.3228 9.52792C9.7969 9.82691 9.43701 10.388 9.43701 11.0395ZM18.1265 2.74252C16.3559 1.18304 14.068 0.187288 11.4538 0.0384521V2.68456C13.6323 2.82418 14.9159 3.52138 16.2047 4.60933L18.1265 2.74252ZM19.36 10.2146H21.9829C21.8068 7.58033 20.7843 5.41585 19.1966 3.64212L17.341 5.50058C18.459 6.79137 19.1944 8.45841 19.36 10.2146Z" fill="#6984F0"></path>
    <path d="M19.3723 11.5316C19.0948 15.9221 15.485 19.4041 11.0758 19.4041C6.48576 19.4041 2.61417 15.6529 2.61417 11.0281C2.61417 6.62534 6.22565 3.02299 10.1469 2.68493V0.0388184C4.48287 0.380833 0 5.18308 0 11.0395C0 17.1171 4.97564 22.0384 11.007 22.0384C16.8592 22.0384 21.7207 17.2392 22 11.5316H19.3723Z" fill="#6984F0"></path>
  </symbol>


   <symbol fill="none" xmlns="http://www.w3.org/2000/svg" viewBox="0 0 23 23" id="email">
    <path d="M17.9688 12.9375L16.9524 13.9538L18.8075 15.8125H12.9375C12.175 15.8125 11.4437 16.1154 10.9046 16.6546C10.3654 17.1937 10.0625 17.925 10.0625 18.6875C10.0625 19.45 10.3654 20.1813 10.9046 20.7204C11.4437 21.2596 12.175 21.5625 12.9375 21.5625H14.375V20.125H12.9375C12.5563 20.125 12.1906 19.9735 11.921 19.704C11.6515 19.4344 11.5 19.0687 11.5 18.6875C11.5 18.3063 11.6515 17.9406 11.921 17.671C12.1906 17.4015 12.5563 17.25 12.9375 17.25H18.8075L16.951 19.1094L17.9688 20.125L21.5625 16.5312L17.9688 12.9375Z" fill="#263057"></path>
    <path d="M7.1875 15.8125H2.875L2.87284 4.96369L11.091 10.6533C11.2112 10.7365 11.3539 10.781 11.5 10.781C11.6461 10.781 11.7888 10.7365 11.909 10.6533L20.125 4.96656V11.5H21.5625V4.3125C21.5621 3.93137 21.4105 3.56596 21.141 3.29645C20.8715 3.02695 20.5061 2.87538 20.125 2.875H2.875C2.49412 2.875 2.12882 3.02615 1.8593 3.29527C1.58977 3.56439 1.43807 3.92947 1.4375 4.31034V15.8125C1.43807 16.1936 1.5897 16.5589 1.85916 16.8283C2.12862 17.0978 2.49393 17.2494 2.875 17.25H7.1875V15.8125ZM18.543 4.3125L11.5 9.1885L4.45697 4.3125H18.543Z" fill="#263057"></path>
  </symbol>
  <symbol fill="none" xmlns="http://www.w3.org/2000/svg" viewBox="0 0 26 26" id="marker">
    <path d="M12.9997 4.85352C12.1812 4.85352 11.3811 5.09622 10.7005 5.55095C10.02 6.00568 9.48956 6.652 9.17634 7.40818C8.86312 8.16436 8.78117 8.99644 8.94085 9.7992C9.10053 10.602 9.49466 11.3393 10.0734 11.9181C10.6522 12.4969 11.3896 12.891 12.1923 13.0507C12.9951 13.2103 13.8272 13.1284 14.5833 12.8152C15.3395 12.502 15.9858 11.9715 16.4406 11.291C16.8953 10.6104 17.138 9.81033 17.138 8.99185C17.138 7.8943 16.702 6.84169 15.9259 6.06561C15.1498 5.28952 14.0972 4.85352 12.9997 4.85352ZM12.9997 11.6857C12.4669 11.6857 11.946 11.5277 11.503 11.2317C11.06 10.9357 10.7147 10.515 10.5108 10.0228C10.3069 9.53051 10.2536 8.98886 10.3575 8.4663C10.4615 7.94373 10.718 7.46373 11.0948 7.08698C11.4715 6.71023 11.9515 6.45367 12.4741 6.34972C12.9967 6.24578 13.5383 6.29913 14.0306 6.50302C14.5228 6.70691 14.9435 7.0522 15.2395 7.4952C15.5356 7.93821 15.6936 8.45905 15.6936 8.99185C15.6916 9.70506 15.407 10.3884 14.902 10.892C14.397 11.3957 13.7129 11.6785 12.9997 11.6785V11.6857Z" fill="#263057"></path>
    <path d="M13 1.44434C10.7504 1.44621 8.59295 2.33822 6.99888 3.92553C5.40481 5.51283 4.50363 7.66645 4.49219 9.916C4.49219 13.2888 6.38441 16.1127 7.77108 18.171L8.02385 18.5466C9.4035 20.5461 10.8835 22.4745 12.4583 24.3243L13.0072 24.9671L13.5561 24.3243C15.1306 22.4744 16.6107 20.546 17.9905 18.5466L18.2433 18.1638C19.6227 16.1054 21.515 13.2888 21.515 9.916C21.5035 7.6652 20.6013 5.51049 19.0057 3.92298C17.4101 2.33547 15.2508 1.44431 13 1.44434ZM17.0372 17.3332L16.7772 17.716C15.535 19.5793 13.8883 21.6666 13 22.6993C12.1477 21.6666 10.465 19.5793 9.22274 17.716L8.96997 17.3332C7.69163 15.4266 5.93663 12.8193 5.93663 9.88711C5.93663 8.95954 6.11933 8.04106 6.4743 7.18409C6.82926 6.32713 7.34954 5.54847 8.00543 4.89258C8.66133 4.23669 9.43998 3.71641 10.2969 3.36144C11.1539 3.00648 12.0724 2.82378 13 2.82378C13.9275 2.82378 14.846 3.00648 15.703 3.36144C16.5599 3.71641 17.3386 4.23669 17.9945 4.89258C18.6504 5.54847 19.1707 6.32713 19.5256 7.18409C19.8806 8.04106 20.0633 8.95954 20.0633 9.88711C20.0633 12.8482 18.3155 15.4554 17.0372 17.3332Z" fill="#263057"></path>
  </symbol>
  <symbol fill="none" xmlns="http://www.w3.org/2000/svg" viewBox="0 0 33 33" id="telegram-blue">
    <path fill-rule="evenodd" clip-rule="evenodd" d="M32.5407 16.5C32.5407 25.1195 25.3525 32.1081 16.4867 32.1081C7.62082 32.1081 0.432617 25.1195 0.432617 16.5C0.432617 7.88038 7.62082 0.891846 16.4867 0.891846C25.3525 0.891846 32.5407 7.88038 32.5407 16.5ZM17.0619 12.4145C15.5007 13.0454 12.3795 14.3525 7.69975 16.3348C6.93986 16.6287 6.54118 16.9162 6.50506 17.1971C6.44352 17.6732 7.05625 17.8605 7.88839 18.1141C8.0021 18.1492 8.11983 18.1843 8.24024 18.2234C9.06033 18.4822 10.1627 18.7852 10.7353 18.7969C11.2557 18.8074 11.8363 18.5992 12.4772 18.1726C16.8492 15.302 19.1062 13.8518 19.248 13.8206C19.3483 13.7985 19.4874 13.7698 19.5811 13.8518C19.6747 13.9324 19.6654 14.0859 19.656 14.1275C19.5945 14.3786 17.1944 16.5494 15.9502 17.6732C15.5622 18.023 15.288 18.2715 15.2318 18.3287C15.106 18.4549 14.9776 18.5758 14.8545 18.6916C14.0919 19.4044 13.522 19.9402 14.8866 20.8143C15.5422 21.2344 16.0666 21.5817 16.5897 21.9277C17.1609 22.3062 17.7309 22.6834 18.4693 23.1542C18.6566 23.2739 18.8359 23.3974 19.0112 23.5184C19.6761 23.9801 20.2741 24.3938 21.0126 24.3287C21.4407 24.2897 21.8848 23.8982 22.1096 22.7289C22.6407 19.9637 23.6869 13.9753 23.9291 11.5067C23.9438 11.3017 23.9348 11.0958 23.9023 10.8927C23.8828 10.7288 23.8007 10.5779 23.6722 10.47C23.4809 10.3178 23.1839 10.2853 23.0501 10.2879C22.4467 10.2983 21.521 10.6118 17.0619 12.4145Z" fill="#6984F0"></path>
  </symbol>
  <symbol fill="none" xmlns="http://www.w3.org/2000/svg" viewBox="0 0 32 33" id="viber-blue">
    <path fill-rule="evenodd" clip-rule="evenodd" d="M3.29856 4.19321C6.47244 1.3502 12.1471 0.926721 14.7866 0.895596C15.6643 0.880543 16.2101 0.915667 16.2101 0.915667C23.5651 0.941774 26.8573 3.284 27.6764 4.0206H27.6929C30.4074 6.3207 31.911 11.4056 30.8997 19.476C30.0008 26.6021 24.9054 27.8557 23.2024 28.2747C23.0379 28.3152 22.9051 28.3479 22.8107 28.3773C22.3451 28.5238 18.3027 29.5113 13.0248 29.0828L11.1079 31.1992C10.9318 31.3828 10.7679 31.5643 10.6116 31.7372C9.8555 32.5737 9.2792 33.2113 8.38322 32.9343C7.5054 32.6684 7.55374 31.3718 7.55374 31.3718V28.1314C-0.160061 26.0039 -0.0634617 18.1905 0.0167566 14.0298C0.113356 9.85413 0.937621 6.47725 3.29856 4.19321ZM15.3968 7.3426C15.4467 7.32288 15.5002 7.313 15.554 7.31353C17.9786 7.31353 20.0404 8.11234 21.6675 9.66481C22.5023 10.5069 23.153 11.506 23.5801 12.6013C24.0072 13.6966 24.2016 14.8653 24.1517 16.0362C24.1507 16.1422 24.1067 16.2434 24.0295 16.3178C23.9523 16.3923 23.8481 16.4339 23.7395 16.4336V16.4497C23.5093 16.4497 23.3274 16.267 23.3274 16.0473C23.2996 13.5595 22.572 11.6568 21.0785 10.2408C20.3471 9.54778 19.4823 9.00295 18.5341 8.63782C17.5859 8.27267 16.573 8.09442 15.554 8.11334C15.3289 8.11334 15.1418 7.93572 15.1418 7.71092C15.142 7.65836 15.1527 7.60632 15.1736 7.55785C15.1944 7.50936 15.2248 7.46537 15.2631 7.42845C15.3015 7.3915 15.3469 7.36232 15.3968 7.3426ZM9.29558 8.39534C9.54868 8.24928 9.84538 8.19227 10.1363 8.23376L10.1343 8.23176C10.4059 8.28213 10.6506 8.42467 10.8249 8.63417C11.6227 9.52285 12.3291 10.4858 12.9341 11.5093C13.3298 12.1947 13.0728 12.8891 12.7038 13.1822L11.933 13.7883C11.5373 14.0813 11.5907 14.6564 11.5907 14.6564C11.5907 14.6564 12.7316 18.8842 17.0083 19.951L17.0248 19.941C17.0248 19.941 17.5983 19.9931 17.9139 19.6168L18.5295 18.8592C18.8183 18.4828 19.5306 18.258 20.2316 18.6293C21.2784 19.2241 22.2644 19.9154 23.1763 20.6936C23.6316 21.0649 23.7386 21.6138 23.423 22.1939V22.2039C23.0868 22.7805 22.6563 23.2994 22.1485 23.7403C21.7317 24.1098 21.2001 24.3324 20.6386 24.3726C20.4618 24.3726 20.286 24.3465 20.0928 24.2893V24.2792C19.434 24.0906 18.3363 23.636 16.5273 22.6746C14.9446 21.8199 13.4801 20.7715 12.1694 19.5546L12.1262 19.5185L12.0892 19.4763L12.0306 19.4342L11.9936 19.382C10.7509 18.1069 9.68205 16.6805 8.81355 15.1381C8.13928 14.0402 7.58731 12.8741 7.16494 11.6618L7.1382 11.6458C7.06312 11.411 7.0416 11.1651 7.07339 10.9192C7.12687 10.5068 7.33035 10.0783 7.7055 9.65478C8.15694 9.15673 8.68635 8.73166 9.27398 8.39534H9.29558ZM16.2704 10.2308C15.7195 10.2308 15.7195 9.42596 16.2653 9.42596H16.3238C18.1071 9.54539 19.5039 10.1465 20.505 11.2183C21.501 12.29 22.0087 13.6277 21.9717 15.2224C21.9709 15.3288 21.9272 15.4307 21.8501 15.506C21.773 15.5813 21.6686 15.624 21.5596 15.6248L21.5431 15.6037C21.4672 15.6033 21.3935 15.5827 21.3298 15.5447C21.3025 15.5286 21.2771 15.5093 21.254 15.487C21.177 15.4128 21.1328 15.312 21.1309 15.2063C21.1718 14.5818 21.0839 13.9556 20.8724 13.3649C20.6609 12.7741 20.3301 12.2308 19.8996 11.7672C19.4277 11.2909 18.8643 10.91 18.2416 10.6464C17.6188 10.3828 16.949 10.2415 16.2704 10.2308ZM16.9138 12.4105C16.3567 12.3944 16.3783 11.5735 16.9405 11.5896L16.9569 11.5906C18.734 11.6839 19.7352 12.6935 19.8318 14.4858C19.8351 14.5394 19.8275 14.5931 19.8093 14.6438C19.7912 14.6945 19.7628 14.7411 19.726 14.781C19.6891 14.8209 19.6445 14.8533 19.5948 14.8761C19.545 14.899 19.491 14.912 19.4361 14.9143H19.4196C19.3127 14.9138 19.2103 14.8724 19.1342 14.7991C19.0581 14.7257 19.0145 14.6263 19.0126 14.5219C18.9263 13.1471 18.2685 12.4787 16.9138 12.4105Z" fill="#6984F0"></path>
  </symbol>
  <symbol fill="none" xmlns="http://www.w3.org/2000/svg" viewBox="0 0 33 33" id="vk-blue">
    <path d="M16.432 0C7.56546 0 0.37793 7.18753 0.37793 16.0541C0.37793 24.9206 7.56546 32.1081 16.432 32.1081C25.2985 32.1081 32.486 24.9206 32.486 16.0541C32.486 7.18753 25.2985 0 16.432 0ZM22.6061 18.1127C22.6061 18.1127 24.0259 19.514 24.3754 20.1646C24.3854 20.1779 24.3904 20.1913 24.3938 20.198C24.5359 20.4371 24.5694 20.6228 24.4991 20.7616C24.3821 20.9923 23.9807 21.1061 23.8436 21.1161H21.3352C21.1612 21.1161 20.7967 21.0709 20.3552 20.7666C20.0157 20.5291 19.6813 20.1395 19.3552 19.7599C18.8685 19.1946 18.4471 18.7063 18.0223 18.7063C17.9684 18.7062 17.9148 18.7147 17.8635 18.7314C17.5424 18.8351 17.131 19.2933 17.131 20.5141C17.131 20.8954 16.83 21.1144 16.6176 21.1144H15.4687C15.0774 21.1144 13.0389 20.9773 11.2328 19.0726C9.02203 16.7397 7.032 12.0606 7.01528 12.0171C6.88985 11.7144 7.14906 11.5522 7.43168 11.5522H9.96521C10.303 11.5522 10.4134 11.7579 10.4903 11.9402C10.5806 12.1526 10.9117 12.9971 11.4552 13.947C12.3365 15.4955 12.8767 16.1243 13.3098 16.1243C13.391 16.1233 13.4708 16.1027 13.5423 16.0641C14.1075 15.7497 14.0021 13.7346 13.9771 13.3165C13.9771 13.2379 13.9754 12.4151 13.6861 12.0205C13.4787 11.7345 13.1259 11.6258 12.9118 11.5857C12.9984 11.4661 13.1126 11.3692 13.2446 11.3031C13.6326 11.1091 14.3316 11.0806 15.0256 11.0806H15.4119C16.1644 11.0907 16.3584 11.1392 16.631 11.2077C17.1828 11.3398 17.1946 11.696 17.1461 12.9152C17.131 13.2613 17.116 13.6526 17.116 14.1142C17.116 14.2145 17.1109 14.3216 17.1109 14.4353C17.0942 15.0557 17.0741 15.7597 17.5123 16.049C17.5694 16.0849 17.6355 16.104 17.7029 16.1042C17.8551 16.1042 18.3133 16.1042 19.5542 13.9754C19.9368 13.2902 20.2694 12.5781 20.5492 11.8449C20.5743 11.8014 20.6478 11.6676 20.7348 11.6158C20.799 11.5831 20.8701 11.5664 20.9422 11.5673H23.9205C24.245 11.5673 24.4674 11.6158 24.5092 11.7412C24.5828 11.9402 24.4958 12.5472 23.1362 14.3884L22.5292 15.1895C21.2967 16.8049 21.2967 16.8869 22.6061 18.1127Z" fill="#6984F0"></path>
  </symbol>
  <symbol fill="none" xmlns="http://www.w3.org/2000/svg" viewBox="0 0 32 33" id="wa-blue">
    <path d="M0.168373 32.108L2.27859 24.3539C0.888122 21.9704 0.157598 19.2594 0.16213 16.4999C0.16213 7.87959 7.14988 0.891846 15.7702 0.891846C24.3906 0.891846 31.3783 7.87959 31.3783 16.4999C31.3783 25.1203 24.3906 32.108 15.7702 32.108C13.0119 32.1125 10.3022 31.3825 7.91935 29.9931L0.168373 32.108ZM10.1373 9.17662C9.93571 9.18914 9.73875 9.24223 9.55821 9.33271C9.38889 9.42859 9.23433 9.54845 9.09933 9.68857C8.91203 9.86494 8.8059 10.0179 8.69196 10.1662C8.1151 10.9169 7.80481 11.8385 7.8101 12.7852C7.81322 13.55 8.013 14.2945 8.32517 14.9906C8.96354 16.3985 10.014 17.8891 11.4015 19.2704C11.7355 19.6028 12.0617 19.9368 12.4129 20.2474C14.1351 21.7637 16.1874 22.8572 18.4064 23.4409L19.2945 23.5767C19.5833 23.5923 19.872 23.5704 20.1623 23.5564C20.6169 23.5329 21.0608 23.4098 21.4625 23.1958C21.6669 23.0905 21.8664 22.976 22.0603 22.8524C22.0603 22.8524 22.1274 22.8087 22.2554 22.712C22.4661 22.5559 22.5957 22.4451 22.7705 22.2625C22.9 22.1282 23.0124 21.9706 23.0982 21.7911C23.22 21.5367 23.3417 21.0513 23.3917 20.647C23.4291 20.338 23.4182 20.1694 23.4135 20.0648C23.4073 19.8978 23.2684 19.7246 23.117 19.6512L22.2086 19.2438C22.2086 19.2438 20.8507 18.6523 20.0219 18.2746C19.9345 18.2365 19.8408 18.2148 19.7456 18.2106C19.6388 18.1996 19.5309 18.2116 19.4292 18.2458C19.3274 18.28 19.2341 18.3356 19.1556 18.4088V18.4057C19.1478 18.4057 19.0432 18.4947 17.9148 19.8619C17.85 19.949 17.7608 20.0147 17.6585 20.0509C17.5562 20.087 17.4455 20.0919 17.3404 20.0648C17.2387 20.0376 17.1391 20.0032 17.0423 19.9618C16.8487 19.8807 16.7816 19.8494 16.649 19.7917L16.6412 19.7886C15.7482 19.3987 14.9215 18.8721 14.1907 18.2278C13.994 18.0561 13.8114 17.8688 13.6241 17.6877C13.0101 17.0997 12.4749 16.4344 12.0321 15.7086L11.94 15.5603C11.8739 15.4607 11.8204 15.3532 11.7808 15.2404C11.7215 15.0109 11.876 14.8268 11.876 14.8268C11.876 14.8268 12.2553 14.4116 12.4317 14.1868C12.5785 14 12.7155 13.8057 12.8421 13.6046C13.0263 13.3081 13.0841 13.0037 12.9873 12.768C12.5503 11.7005 12.0976 10.6375 11.6325 9.58243C11.5404 9.37329 11.2673 9.22345 11.0191 9.19379C10.9348 9.18443 10.8506 9.17506 10.7663 9.16882C10.5567 9.15841 10.3466 9.16049 10.1373 9.17506V9.17662Z" fill="#6984F0"></path>
  </symbol>



   <symbol fill="none" xmlns="http://www.w3.org/2000/svg" viewBox="0 0 68 68" id="features1">
    <g clip-path="url(#clip0_30_2133)">
      <path d="M66.867 1.13333C66.8669 1.13333 66.8666 1.13333 66.8665 1.13333H49.8665C49.2406 1.13333 48.7333 1.64064 48.7333 2.26652C48.7333 2.56714 48.8527 2.85543 49.0652 3.06793L53.9306 7.93333L51.5193 10.3445C46.4642 6.55888 40.3153 4.51931 33.9998 4.53333C17.7496 4.50939 4.55708 17.6634 4.53313 33.9136C4.52903 36.6948 4.91932 39.4624 5.69225 42.1339L0.389384 46.745C-0.0754246 47.1498 -0.13195 47.8516 0.262167 48.3255L5.92884 55.1255C6.12561 55.3613 6.40951 55.5073 6.71579 55.5299C6.74342 55.5322 6.77218 55.5333 6.7998 55.5333C7.07719 55.5333 7.34508 55.4315 7.55248 55.2472L10.9019 52.2699C20.9431 65.0594 39.4511 67.2874 52.2407 57.2461C64.3146 47.7666 67.0793 30.6013 58.592 17.8103L61.1998 15.2027L66.0652 20.0681C66.5078 20.5106 67.2253 20.5106 67.6679 20.0682C67.8805 19.8557 67.9998 19.5674 67.9998 19.2668V2.26666C68 1.64092 67.4928 1.13347 66.867 1.13333ZM33.9998 6.8C35.9048 6.80581 37.804 7.01023 39.6665 7.41016V9.63333C39.6661 9.94613 39.4126 10.1996 39.0998 10.2H34.5665C33.0023 10.2017 31.7348 11.4692 31.7331 13.0333V15.3C31.7327 15.6128 31.4793 15.8662 31.1665 15.8667H26.6331C26.3203 15.8662 26.0669 15.6128 26.0665 15.3C26.0648 13.7359 24.7973 12.4684 23.2331 12.4667H22.0998C20.5357 12.4684 19.2682 13.7359 19.2665 15.3V18.7C19.266 19.0128 19.0126 19.2662 18.6998 19.2667H11.1538C16.1572 11.5002 24.7613 6.80524 33.9998 6.8ZM7.98314 26.0667H15.2998C15.6126 26.0671 15.866 26.3205 15.8665 26.6333V27.7667C15.866 28.0795 15.6126 28.3329 15.2998 28.3333H14.1665C12.6023 28.335 11.3348 29.6025 11.3331 31.1667C11.3327 31.4795 11.0793 31.7329 10.7665 31.7333H6.90152C7.05891 29.8112 7.42144 27.9116 7.98314 26.0667ZM10.7665 34C12.3306 33.9983 13.5981 32.7308 13.5998 31.1667C13.6002 30.8539 13.8537 30.6004 14.1665 30.6H15.2998C16.8639 30.5983 18.1314 29.3308 18.1331 27.7667V26.6333C18.1314 25.0692 16.8639 23.8017 15.2998 23.8H8.79164C9.10599 23.0258 9.45464 22.2703 9.83728 21.5333H18.6998C20.2639 21.5316 21.5314 20.2641 21.5331 18.7V15.3C21.5336 14.9872 21.787 14.7338 22.0998 14.7333H23.2331C23.5459 14.7338 23.7994 14.9872 23.7998 15.3C23.8015 16.8641 25.069 18.1316 26.6331 18.1333H31.1665C32.7306 18.1316 33.9981 16.8641 33.9998 15.3V13.0333C34.0002 12.7205 34.2537 12.4671 34.5665 12.4667H39.0998C40.664 12.465 41.9314 11.1975 41.9331 9.63333V7.99311C44.7904 8.86578 47.4824 10.2082 49.8986 11.9653L32.8665 28.9975L28.0011 24.1321C27.5803 23.7105 26.905 23.6871 26.4561 24.0784L7.58974 40.4839C7.06727 38.3621 6.80207 36.1852 6.7998 34H10.7665ZM20.5673 57.625C17.491 55.8759 14.7847 53.5445 12.5996 50.7609L19.981 44.2H26.0665C26.6921 44.2006 27.1992 44.7077 27.1998 45.3333C27.2086 47.2074 28.7257 48.7245 30.5998 48.7333C30.9054 48.7328 31.1978 48.8583 31.4077 49.0803C31.6184 49.2874 31.7357 49.5713 31.7331 49.8667V52.1333C31.7326 52.7589 31.2254 53.2661 30.5998 53.2667H26.0665C23.4462 53.2733 21.1722 55.0755 20.5673 57.625ZM34.1147 61.197C34.6579 58.562 36.9761 56.6702 39.6665 56.6667H43.0665C44.9443 56.6667 46.4665 55.1445 46.4665 53.2667C46.4665 51.3889 44.9443 49.8667 43.0665 49.8667H40.2331C39.9202 49.8667 39.6665 49.6129 39.6665 49.3C39.6665 48.9871 39.9202 48.7333 40.2331 48.7333H56.8458C51.864 56.4645 43.3118 61.1538 34.1147 61.197ZM58.1623 46.4667H40.2331C38.6683 46.4667 37.3998 47.7351 37.3998 49.3C37.3998 50.8648 38.6683 52.1333 40.2331 52.1333H43.0665C43.6924 52.1333 44.1998 52.6408 44.1998 53.2667C44.1998 53.8925 43.6924 54.4 43.0665 54.4H39.6665C35.7648 54.4071 32.4466 57.2482 31.8387 61.1022C28.6726 60.846 25.5757 60.0368 22.689 58.7112C22.8028 56.928 24.2796 55.5384 26.0665 55.5333H30.5998C32.4767 55.5313 33.9978 54.0103 33.9998 52.1333V49.8667C33.991 47.9926 32.4739 46.4754 30.5998 46.4667C30.2942 46.4672 30.0018 46.3417 29.7919 46.1197C29.5812 45.9126 29.4639 45.6287 29.4665 45.3333C29.4645 43.4564 27.9434 41.9353 26.0665 41.9333H22.531L27.1545 37.8239L32.0652 42.7346C32.5075 43.1772 33.2249 43.1773 33.6673 42.735C33.6675 42.7349 33.6676 42.7347 33.6677 42.7346L46.9358 29.4667H51.5665C52.5053 29.4667 53.2665 30.2278 53.2665 31.1667C53.2665 32.1055 52.5053 32.8667 51.5665 32.8667H47.5998C45.7258 32.876 44.2092 34.3927 44.1998 36.2667C44.2018 38.1436 45.7229 39.6647 47.5998 39.6667H60.6018C60.0971 42.0325 59.2765 44.3196 58.1623 46.4667ZM59.7732 25.2964C61.0904 29.1867 61.5031 33.3262 60.9798 37.4001H47.5998C46.9742 37.3996 46.467 36.8924 46.4665 36.2668C46.4658 35.9617 46.5911 35.6697 46.8129 35.46C47.0198 35.2488 47.304 35.1308 47.5998 35.1335H51.5665C53.7572 35.1335 55.5331 33.3575 55.5331 31.1668C55.5331 28.9761 53.7572 27.2001 51.5665 27.2001H49.2023L51.469 24.9335H59.6354C59.6787 25.0553 59.7317 25.1736 59.7732 25.2964ZM58.7078 22.6667H53.7358L56.9559 19.4466C57.6115 20.4793 58.1968 21.5551 58.7078 22.6667ZM65.7331 16.5308L62.0011 12.7987C61.5588 12.3562 60.8414 12.356 60.399 12.7983C60.3988 12.7984 60.3987 12.7986 60.3985 12.7987L32.8665 40.3308L28.0011 35.4654C27.5769 35.0411 26.8956 35.021 26.4471 35.4195L6.92149 52.7758L2.7147 47.7272L27.1455 26.4822L32.0652 31.4011C32.5075 31.8437 33.2249 31.8438 33.6673 31.4015C33.6675 31.4014 33.6676 31.4013 33.6677 31.4011L56.3344 8.73446C56.777 8.29217 56.7771 7.57477 56.3348 7.13235C56.3347 7.13221 56.3346 7.13206 56.3344 7.13192L52.6025 3.4H65.7331V16.5308Z" fill="#6984F0"></path>
      <path d="M62.3331 62.3333H60.0664V64.6H62.3331V62.3333Z" fill="#6984F0"></path>
      <path d="M68.0001 65.7333H65.7334V68H68.0001V65.7333Z" fill="#6984F0"></path>
      <path d="M65.7335 56.6667H63.4668V58.9333H65.7335V56.6667Z" fill="#6984F0"></path>
      <path d="M56.667 65.7333H54.4004V68H56.667V65.7333Z" fill="#6984F0"></path>
      <path d="M68.0001 49.8667H65.7334V52.1333H68.0001V49.8667Z" fill="#6984F0"></path>
      <path d="M2.26667 0H0V2.26667H2.26667V0Z" fill="#6984F0"></path>
      <path d="M7.93366 2.26666H5.66699V4.53333H7.93366V2.26666Z" fill="#6984F0"></path>
      <path d="M3.40046 6.8H1.13379V9.06667H3.40046V6.8Z" fill="#6984F0"></path>
      <path d="M14.7335 0H12.4668V2.26667H14.7335V0Z" fill="#6984F0"></path>
      <path d="M7.93366 9.06667H5.66699V11.3333H7.93366V9.06667Z" fill="#6984F0"></path>
      <path d="M2.26667 13.6H0V15.8667H2.26667V13.6Z" fill="#6984F0"></path>
    </g>
    <defs>
      <clipPath id="clip0_30_2133">
        <rect width="68" height="68" fill="white"></rect>
      </clipPath>
    </defs>
  </symbol>
  <symbol fill="none" xmlns="http://www.w3.org/2000/svg" viewBox="0 0 80 68" id="features2">
    <path d="M16.25 29.8056H3.75C3.41848 29.8056 3.10054 29.6741 2.86612 29.4398C2.6317 29.2056 2.5 28.888 2.5 28.5567C2.5 28.2255 2.6317 27.9078 2.86612 27.6736C3.10054 27.4394 3.41848 27.3078 3.75 27.3078H16.25C16.5815 27.3078 16.8995 27.4394 17.1339 27.6736C17.3683 27.9078 17.5 28.2255 17.5 28.5567C17.5 28.888 17.3683 29.2056 17.1339 29.4398C16.8995 29.6741 16.5815 29.8056 16.25 29.8056Z" fill="#6984F0"></path>
    <path d="M16.25 39.7972H3.75C3.41848 39.7972 3.10054 39.6656 2.86612 39.4314C2.6317 39.1971 2.5 38.8795 2.5 38.5483C2.5 38.217 2.6317 37.8994 2.86612 37.6651C3.10054 37.4309 3.41848 37.2993 3.75 37.2993H16.25C16.5815 37.2993 16.8995 37.4309 17.1339 37.6651C17.3683 37.8994 17.5 38.217 17.5 38.5483C17.5 38.8795 17.3683 39.1971 17.1339 39.4314C16.8995 39.6656 16.5815 39.7972 16.25 39.7972Z" fill="#6984F0"></path>
    <path d="M16.25 34.801H10C9.66848 34.801 9.35054 34.6694 9.11612 34.4352C8.8817 34.2009 8.75 33.8833 8.75 33.5521C8.75 33.2208 8.8817 32.9032 9.11612 32.6689C9.35054 32.4347 9.66848 32.3031 10 32.3031H16.25C16.5815 32.3031 16.8995 32.4347 17.1339 32.6689C17.3683 32.9032 17.5 33.2208 17.5 33.5521C17.5 33.8833 17.3683 34.2009 17.1339 34.4352C16.8995 34.6694 16.5815 34.801 16.25 34.801Z" fill="#6984F0"></path>
    <path d="M7.5 47.2906H5C4.66848 47.2906 4.35054 47.159 4.11612 46.9248C3.8817 46.6906 3.75 46.3729 3.75 46.0417C3.75 45.7104 3.8817 45.3928 4.11612 45.1586C4.35054 44.9243 4.66848 44.7928 5 44.7928H7.5C7.83152 44.7928 8.14946 44.9243 8.38388 45.1586C8.6183 45.3928 8.75 45.7104 8.75 46.0417C8.75 46.3729 8.6183 46.6906 8.38388 46.9248C8.14946 47.159 7.83152 47.2906 7.5 47.2906Z" fill="#6984F0"></path>
    <path d="M11.25 54.784H10C9.66848 54.784 9.35054 54.6524 9.11612 54.4182C8.8817 54.184 8.75 53.8663 8.75 53.5351C8.75 53.2039 8.8817 52.8862 9.11612 52.652C9.35054 52.4178 9.66848 52.2862 10 52.2862H11.25C11.5815 52.2862 11.8995 52.4178 12.1339 52.652C12.3683 52.8862 12.5 53.2039 12.5 53.5351C12.5 53.8663 12.3683 54.184 12.1339 54.4182C11.8995 54.6524 11.5815 54.784 11.25 54.784Z" fill="#6984F0"></path>
    <path d="M17.5 47.2906H11.25C10.9185 47.2906 10.6005 47.159 10.3661 46.9248C10.1317 46.6906 10 46.3729 10 46.0417C10 45.7104 10.1317 45.3928 10.3661 45.1586C10.6005 44.9243 10.9185 44.7928 11.25 44.7928H17.5C17.8315 44.7928 18.1495 44.9243 18.3839 45.1586C18.6183 45.3928 18.75 45.7104 18.75 46.0417C18.75 46.3729 18.6183 46.6906 18.3839 46.9248C18.1495 47.159 17.8315 47.2906 17.5 47.2906Z" fill="#6984F0"></path>
    <path d="M48.75 4.82756H20C19.6685 4.82756 19.3505 4.95914 19.1161 5.19336C18.8817 5.42757 18.75 5.74523 18.75 6.07646C18.75 6.40769 18.8817 6.72536 19.1161 6.95957C19.3505 7.19379 19.6685 7.32537 20 7.32537H37.0462C31.9718 9.58307 27.661 13.2619 24.6358 17.9166C21.6105 22.5713 20.0005 28.0023 20.0005 33.5523C20.0005 39.1023 21.6105 44.5334 24.6358 49.1881C27.661 53.8428 31.9718 57.5216 37.0462 59.7793H17.5C17.1685 59.7793 16.8505 59.9109 16.6161 60.1451C16.3817 60.3793 16.25 60.697 16.25 61.0282C16.25 61.3594 16.3817 61.6771 16.6161 61.9113C16.8505 62.1455 17.1685 62.2771 17.5 62.2771H48.75C56.375 62.2771 63.6876 59.2508 69.0793 53.8638C74.471 48.4769 77.5 41.1706 77.5 33.5523C77.5 25.9341 74.471 18.6278 69.0793 13.2409C63.6876 7.85391 56.375 4.82756 48.75 4.82756ZM48.75 59.7793C43.5582 59.7793 38.4831 58.2411 34.1663 55.3593C29.8495 52.4774 26.485 48.3813 24.4982 43.589C22.5114 38.7966 21.9915 33.5232 23.0044 28.4357C24.0172 23.3482 26.5173 18.675 30.1884 15.0071C33.8596 11.3392 38.5369 8.84128 43.6289 7.82931C48.7209 6.81734 53.9989 7.33672 58.7954 9.32178C63.592 11.3068 67.6917 14.6684 70.5761 18.9814C73.4605 23.2944 75 28.3651 75 33.5523C74.9924 40.5058 72.2243 47.1723 67.3031 52.0892C62.382 57.0061 55.7096 59.7717 48.75 59.7793Z" fill="#6984F0"></path>
    <path d="M48.75 9.82288C44.0527 9.82288 39.4609 11.2146 35.5552 13.822C31.6496 16.4294 28.6055 20.1353 26.8079 24.4713C25.0103 28.8072 24.54 33.5784 25.4564 38.1814C26.3728 42.7844 28.6347 47.0125 31.9562 50.3311C35.2777 53.6497 39.5096 55.9097 44.1166 56.8253C48.7237 57.7409 53.499 57.2709 57.8387 55.4749C62.1785 53.6789 65.8877 50.6375 68.4974 46.7353C71.1071 42.833 72.5 38.2452 72.5 33.552C72.4931 27.2608 69.9886 21.2292 65.5361 16.7807C61.0836 12.3321 55.0468 9.82982 48.75 9.82288ZM60.4313 51.269L59.2075 49.1458C59.126 49.0027 59.017 48.877 58.8867 48.7761C58.7564 48.6752 58.6075 48.601 58.4484 48.5579C58.2893 48.5147 58.1232 48.5034 57.9598 48.5246C57.7963 48.5459 57.6386 48.5992 57.4959 48.6815C57.3531 48.7639 57.228 48.8737 57.1279 49.0045C57.0278 49.1353 56.9545 49.2847 56.9124 49.4439C56.8703 49.6031 56.8601 49.7691 56.8824 49.9323C56.9047 50.0955 56.9591 50.2527 57.0425 50.3948L58.2613 52.5054C55.6882 53.8006 52.8764 54.5542 50 54.7197V52.2856C50 51.9544 49.8683 51.6367 49.6339 51.4025C49.3995 51.1683 49.0815 51.0367 48.75 51.0367C48.4185 51.0367 48.1005 51.1683 47.8661 51.4025C47.6317 51.6367 47.5 51.9544 47.5 52.2856V54.7197C44.624 54.5558 41.8122 53.8038 39.2388 52.5104L40.4575 50.3997C40.5409 50.2577 40.5953 50.1005 40.6176 49.9373C40.64 49.7741 40.6298 49.6081 40.5876 49.4489C40.5455 49.2897 40.4723 49.1403 40.3721 49.0095C40.272 48.8787 40.1469 48.7689 40.0042 48.6865C39.8614 48.6042 39.7038 48.5509 39.5403 48.5296C39.3768 48.5084 39.2107 48.5197 39.0516 48.5629C38.8926 48.606 38.7436 48.6802 38.6133 48.7811C38.483 48.882 38.374 49.0077 38.2925 49.1508L37.0688 51.274C34.6653 49.6857 32.6072 47.6294 31.0175 45.228L33.1425 44.0054C33.4273 43.8386 33.6344 43.566 33.7188 43.2472C33.8032 42.9283 33.7579 42.5891 33.5929 42.3035C33.4278 42.0179 33.1564 41.8091 32.8378 41.7227C32.5193 41.6363 32.1795 41.6793 31.8925 41.8423L29.78 43.0599C28.483 40.4876 27.7287 37.6765 27.5638 34.8009H30C30.3315 34.8009 30.6495 34.6694 30.8839 34.4352C31.1183 34.2009 31.25 33.8833 31.25 33.552C31.25 33.2208 31.1183 32.9031 30.8839 32.6689C30.6495 32.4347 30.3315 32.3031 30 32.3031H27.5638C27.7278 29.4296 28.4804 26.6203 29.775 24.0491L31.8875 25.2668C32.0297 25.3501 32.187 25.4045 32.3504 25.4268C32.5137 25.4491 32.6798 25.4389 32.8392 25.3968C32.9986 25.3547 33.148 25.2815 33.279 25.1815C33.4099 25.0814 33.5198 24.9565 33.6022 24.8139C33.6846 24.6712 33.738 24.5137 33.7593 24.3504C33.7805 24.1871 33.7692 24.0211 33.726 23.8622C33.6828 23.7032 33.6086 23.5544 33.5076 23.4242C33.4066 23.294 33.2808 23.1851 33.1375 23.1037L31.0125 21.881C32.6022 19.4797 34.6603 17.4234 37.0638 15.8351L38.2875 17.9582C38.4544 18.2427 38.7272 18.4497 39.0464 18.534C39.3655 18.6183 39.705 18.5731 39.9909 18.4082C40.2767 18.2433 40.4857 17.9721 40.5722 17.6538C40.6587 17.3356 40.6157 16.996 40.4525 16.7093L39.2338 14.5987C41.8084 13.3029 44.6219 12.5492 47.5 12.3844V14.8185C47.5 15.1497 47.6317 15.4674 47.8661 15.7016C48.1005 15.9358 48.4185 16.0674 48.75 16.0674C49.0815 16.0674 49.3995 15.9358 49.6339 15.7016C49.8683 15.4674 50 15.1497 50 14.8185V12.3844C52.8761 12.5483 55.6878 13.3003 58.2613 14.5937L57.0425 16.7043C56.9591 16.8464 56.9047 17.0036 56.8824 17.1668C56.8601 17.33 56.8703 17.4959 56.9124 17.6552C56.9545 17.8144 57.0278 17.9637 57.1279 18.0946C57.228 18.2254 57.3531 18.3352 57.4959 18.4175C57.6386 18.4999 57.7963 18.5532 57.9598 18.5744C58.1232 18.5957 58.2893 18.5844 58.4484 18.5412C58.6075 18.4981 58.7564 18.4239 58.8867 18.323C59.017 18.2221 59.126 18.0964 59.2075 17.9532L60.4313 15.8301C62.8347 17.4184 64.8928 19.4747 66.4825 21.876L64.3575 23.0987C64.2142 23.1801 64.0884 23.289 63.9874 23.4192C63.8864 23.5494 63.8122 23.6982 63.769 23.8572C63.7258 24.0161 63.7145 24.1821 63.7358 24.3454C63.757 24.5087 63.8104 24.6662 63.8928 24.8089C63.9752 24.9515 64.0851 25.0765 64.216 25.1765C64.347 25.2766 64.4965 25.3497 64.6558 25.3918C64.8152 25.4339 64.9813 25.4441 65.1447 25.4218C65.308 25.3995 65.4653 25.3451 65.6075 25.2618L67.72 24.0441C69.017 26.6165 69.7713 29.4276 69.9363 32.3031H67.5C67.1685 32.3031 66.8505 32.4347 66.6161 32.6689C66.3817 32.9031 66.25 33.2208 66.25 33.552C66.25 33.8833 66.3817 34.2009 66.6161 34.4352C66.8505 34.6694 67.1685 34.8009 67.5 34.8009H69.9363C69.7722 37.6745 69.0196 40.4838 67.725 43.0549L65.6125 41.8373C65.4703 41.754 65.313 41.6996 65.1497 41.6773C64.9863 41.655 64.8202 41.6652 64.6608 41.7073C64.5015 41.7494 64.352 41.8225 64.221 41.9226C64.0901 42.0226 63.9802 42.1476 63.8978 42.2902C63.8154 42.4328 63.762 42.5904 63.7408 42.7537C63.7195 42.917 63.7308 43.0829 63.774 43.2419C63.8172 43.4009 63.8914 43.5497 63.9924 43.6799C64.0934 43.81 64.2192 43.919 64.3625 44.0004L66.4875 45.223C64.8964 47.6249 62.8365 49.6812 60.4313 51.269Z" fill="#6984F0"></path>
    <path d="M51.5915 35.9699C51.9896 35.512 52.2692 34.9635 52.4056 34.3724C52.5421 33.7814 52.5313 33.166 52.3742 32.5801C52.2171 31.9942 51.9185 31.4558 51.5046 31.0121C51.0907 30.5684 50.5742 30.2329 50.0003 30.0351V18.5652C50.0003 18.234 49.8686 17.9163 49.6342 17.6821C49.3998 17.4479 49.0818 17.3163 48.7503 17.3163C48.4188 17.3163 48.1008 17.4479 47.8664 17.6821C47.632 17.9163 47.5003 18.234 47.5003 18.5652V30.0351C46.6669 30.3284 45.9644 30.9069 45.517 31.6681C45.0696 32.4294 44.9063 33.3242 45.0561 34.1942C45.2058 35.0642 45.6588 35.8532 46.335 36.4214C47.0111 36.9896 47.8668 37.3004 48.7503 37.2988C48.979 37.2969 49.2071 37.2739 49.4315 37.2301L52.6678 42.8289C52.8347 43.1134 53.1075 43.3204 53.4266 43.4047C53.7458 43.489 54.0853 43.4438 54.3712 43.2789C54.657 43.114 54.866 42.8428 54.9525 42.5245C55.039 42.2062 54.9959 41.8667 54.8328 41.58L51.5915 35.9699ZM47.5003 33.552C47.5003 33.305 47.5736 33.0636 47.711 32.8582C47.8483 32.6528 48.0435 32.4927 48.2719 32.3982C48.5004 32.3037 48.7517 32.279 48.9942 32.3271C49.2366 32.3753 49.4594 32.4943 49.6342 32.6689C49.809 32.8436 49.928 33.0661 49.9763 33.3084C50.0245 33.5507 49.9998 33.8018 49.9051 34.03C49.8105 34.2582 49.6503 34.4532 49.4448 34.5905C49.2392 34.7277 48.9975 34.801 48.7503 34.801C48.4188 34.801 48.1008 34.6694 47.8664 34.4352C47.632 34.2009 47.5003 33.8833 47.5003 33.552Z" fill="#6984F0"></path>
    <path d="M13.75 14.8188H23.75C24.0815 14.8188 24.3995 14.6872 24.6339 14.453C24.8683 14.2188 25 13.9011 25 13.5699C25 13.2387 24.8683 12.921 24.6339 12.6868C24.3995 12.4526 24.0815 12.321 23.75 12.321H13.75C13.4185 12.321 13.1005 12.4526 12.8661 12.6868C12.6317 12.921 12.5 13.2387 12.5 13.5699C12.5 13.9011 12.6317 14.2188 12.8661 14.453C13.1005 14.6872 13.4185 14.8188 13.75 14.8188Z" fill="#6984F0"></path>
    <path d="M20 22.3122C20.3315 22.3122 20.6495 22.1806 20.8839 21.9464C21.1183 21.7122 21.25 21.3945 21.25 21.0633C21.25 20.7321 21.1183 20.4144 20.8839 20.1802C20.6495 19.946 20.3315 19.8144 20 19.8144H13.75C13.4185 19.8144 13.1005 19.946 12.8661 20.1802C12.6317 20.4144 12.5 20.7321 12.5 21.0633C12.5 21.3945 12.6317 21.7122 12.8661 21.9464C13.1005 22.1806 13.4185 22.3122 13.75 22.3122H20Z" fill="#6984F0"></path>
    <path d="M23.75 53.5351C23.75 53.2039 23.6183 52.8862 23.3839 52.652C23.1495 52.4178 22.8315 52.2862 22.5 52.2862H15C14.6685 52.2862 14.3505 52.4178 14.1161 52.652C13.8817 52.8862 13.75 53.2039 13.75 53.5351C13.75 53.8663 13.8817 54.184 14.1161 54.4182C14.3505 54.6524 14.6685 54.784 15 54.784H22.5C22.8315 54.784 23.1495 54.6524 23.3839 54.4182C23.6183 54.184 23.75 53.8663 23.75 53.5351Z" fill="#6984F0"></path>
    <path d="M10 22.3122H7.5C7.16848 22.3122 6.85054 22.1806 6.61612 21.9464C6.3817 21.7122 6.25 21.3945 6.25 21.0633C6.25 20.7321 6.3817 20.4144 6.61612 20.1802C6.85054 19.946 7.16848 19.8144 7.5 19.8144H10C10.3315 19.8144 10.6495 19.946 10.8839 20.1802C11.1183 20.4144 11.25 20.7321 11.25 21.0633C11.25 21.3945 11.1183 21.7122 10.8839 21.9464C10.6495 22.1806 10.3315 22.3122 10 22.3122Z" fill="#6984F0"></path>
  </symbol>
  <symbol fill="none" xmlns="http://www.w3.org/2000/svg" viewBox="0 0 68 68" id="features3">
    <path d="M53.6914 41.8904C52.3569 39.1081 47.5827 35.2462 42.9701 31.5147C40.3974 29.435 37.9664 27.4687 36.4166 25.9189C36.0284 25.5279 35.4476 25.4032 34.9348 25.5874C33.98 25.9331 33.3906 26.1994 32.926 26.4062C32.2177 26.7235 31.9797 26.8312 31.0248 26.9275C30.6026 26.97 30.223 27.1967 29.9878 27.548C27.9846 30.5427 25.9106 30.2877 24.5251 29.8232C24.0831 29.6759 24.0038 29.486 23.9613 29.3047C23.6638 28.0609 25.157 25.1652 27.0921 23.23C31.6963 18.623 34.0706 17.4697 39.0856 19.711C44.7749 22.2552 50.4756 24.2472 50.5323 24.267C51.2775 24.5247 52.0793 24.1337 52.3371 23.3942C52.5921 22.6547 52.2039 21.8472 51.4644 21.5895C51.4077 21.5697 45.8204 19.6175 40.2444 17.1212C33.7476 14.217 30.1832 16.1295 25.0917 21.224C23.1537 23.162 20.5214 27.0832 21.2014 29.9592C21.4932 31.1832 22.3547 32.0899 23.6352 32.512C26.8454 33.5717 29.775 32.5573 31.9567 29.6617C32.8577 29.5229 33.3479 29.3189 34.0845 28.9874C34.3508 28.8684 34.6625 28.7296 35.0762 28.5624C36.6969 30.0839 38.8842 31.8547 41.1877 33.7162C45.3527 37.085 50.076 40.9044 51.1385 43.1144C51.6627 44.2052 51.0987 44.9164 50.7162 45.2422C50.1552 45.7239 49.3875 45.8769 48.971 45.585C48.5119 45.2705 47.9142 45.2507 47.4409 45.534C46.9649 45.8172 46.6987 46.3528 46.7582 46.9025C46.8544 47.8035 46.0299 48.3192 45.6729 48.4977C44.7662 48.9567 43.8199 48.8774 43.4657 48.5487C43.069 48.1804 42.4995 48.0727 41.9952 48.2597C41.4909 48.4495 41.1395 48.9142 41.0885 49.4525C41.0035 50.3817 40.315 51.2743 39.4168 51.6228C38.9833 51.787 38.3543 51.8863 37.7905 51.3705C37.4392 51.0533 36.9518 50.9313 36.4957 51.0418C36.0339 51.1551 35.6627 51.4895 35.5012 51.9343C35.4474 52.076 35.3255 52.416 33.9995 52.416C33.056 52.416 31.3588 51.7785 30.5287 51.2288C29.5342 50.5743 23.298 45.922 17.9119 41.4113C17.1554 40.7738 15.8464 39.4081 14.6904 38.2011C13.6647 37.1301 12.7269 36.1583 12.2452 35.7503C11.6417 35.2403 10.7492 35.3168 10.2477 35.9175C9.74344 36.5153 9.81702 37.4107 10.4149 37.915C10.8542 38.2862 11.7042 39.1843 12.6419 40.1618C13.9057 41.4821 15.2117 42.8478 16.0902 43.5845C21.3659 48.0017 27.7069 52.7703 28.9704 53.6003C30.0132 54.286 32.2599 55.2493 33.9997 55.2493C35.3964 55.2493 36.4704 54.9291 37.2154 54.303C38.2127 54.6913 39.3462 54.694 40.4369 54.269C41.7262 53.7703 42.7857 52.7645 43.3864 51.5463C44.5027 51.7843 45.7807 51.617 46.9422 51.0335C48.0784 50.4612 48.9 49.5857 49.308 48.5627C50.4357 48.6222 51.5973 48.2228 52.5578 47.3983C54.1844 46.0072 54.632 43.8426 53.6914 41.8904Z" fill="#6984F0"></path>
    <path d="M28.3337 18.4162H15.5837C14.8017 18.4162 14.167 19.0509 14.167 19.8329C14.167 20.6149 14.8017 21.2496 15.5837 21.2496H28.3337C29.1157 21.2496 29.7504 20.6149 29.7504 19.8329C29.7504 19.0509 29.1157 18.4162 28.3337 18.4162Z" fill="#6984F0"></path>
    <path d="M57.8422 38.8757C57.403 38.2269 56.5247 38.0484 55.876 38.4904L51.7337 41.2727C51.0849 41.709 50.912 42.5902 51.3484 43.2389C51.6232 43.6442 52.0709 43.8652 52.5271 43.8652C52.7963 43.8652 53.0711 43.7887 53.3148 43.6244L57.4571 40.8421C58.1057 40.4057 58.2785 39.5246 57.8422 38.8757Z" fill="#6984F0"></path>
    <path d="M49.0477 45.6361C48.0334 44.8371 43.4972 40.1933 40.6922 37.2693C40.151 36.7026 39.2529 36.6828 38.689 37.2268C38.1223 37.768 38.1053 38.6661 38.6465 39.23C39.3747 39.9893 45.7978 46.6845 47.291 47.8632C47.5488 48.0672 47.8605 48.1664 48.1665 48.1664C48.583 48.1664 48.9995 47.9794 49.2828 47.6252C49.7674 47.0131 49.6626 46.1206 49.0477 45.6361Z" fill="#6984F0"></path>
    <path d="M43.3871 48.4779C41.6899 47.1207 37.4258 42.5902 36.4624 41.5419C35.9297 40.9639 35.0372 40.9299 34.4592 41.4569C33.884 41.9867 33.8444 42.8849 34.3742 43.4601C34.4252 43.5139 39.5139 49.0078 41.6162 50.6908C41.8769 50.8976 42.1914 50.9996 42.5002 50.9996C42.9139 50.9996 43.3275 50.8154 43.608 50.4698C44.0955 49.8577 43.9963 48.9652 43.3871 48.4779Z" fill="#6984F0"></path>
    <path d="M37.7488 51.3311C35.7286 49.6283 31.5948 45.2281 30.7873 44.3639C30.2518 43.7916 29.3536 43.7604 28.7841 44.2959C28.2118 44.8314 28.1834 45.7267 28.7161 46.2991C29.8778 47.5429 33.8331 51.7363 35.9213 53.4986C36.1876 53.7224 36.5106 53.8329 36.8336 53.8329C37.2359 53.8329 37.6383 53.6601 37.9188 53.3286C38.4231 52.7279 38.3466 51.8354 37.7488 51.3311Z" fill="#6984F0"></path>
    <path d="M16.558 15.9711C14.1298 13.6704 4.42 12.9252 1.50171 12.7524C1.09942 12.7326 0.728211 12.8657 0.444922 13.1349C0.1615 13.4012 0 13.7752 0 14.1662V39.6662C0 40.4482 0.634711 41.0829 1.41671 41.0829H9.91671C10.5287 41.0829 11.0727 40.6891 11.2625 40.1054C11.4693 39.4707 16.3512 24.4881 16.9943 17.1214C17.0312 16.6907 16.8725 16.2657 16.558 15.9711ZM8.8825 38.2496H2.83329V15.6849C7.3865 16.0447 12.2995 16.8267 14.0845 17.6937C13.3337 23.8987 9.9365 34.9232 8.8825 38.2496Z" fill="#6984F0"></path>
    <path d="M66.583 15.5829C55.4593 15.5829 49.2883 18.4304 49.0305 18.5494C48.6622 18.7222 48.3873 19.0424 48.274 19.4306C48.1607 19.8188 48.2173 20.2353 48.4298 20.5809C50.1808 23.4001 55.6633 39.0571 56.7173 42.8764C56.8873 43.4912 57.4455 43.9162 58.083 43.9162H66.583C67.365 43.9162 67.9997 43.2815 67.9997 42.4995V16.9995C67.9997 16.2147 67.365 15.5829 66.583 15.5829ZM65.1664 41.0829H59.1427C57.7997 36.7082 53.833 25.3012 51.6202 20.5866C53.782 19.8528 58.4259 18.5919 65.1664 18.4333V41.0829Z" fill="#6984F0"></path>
  </symbol>
  <symbol fill="none" xmlns="http://www.w3.org/2000/svg" viewBox="0 0 54 54" id="features4">
    <path d="M39.2959 23.5489H19.3785V14.4361C19.3785 13.0955 19.9075 11.8381 20.868 10.8959C21.8279 9.95403 23.0947 9.45496 24.4376 9.47468C27.1207 9.52552 29.3035 11.7988 29.3035 14.542V15.2933C29.3035 17.9052 31.4284 20.0301 34.0403 20.0301C36.6522 20.0301 38.7771 17.9051 38.7771 15.2933V14.4361C38.7771 10.5592 37.2561 6.9177 34.4944 4.18268C31.7674 1.48194 28.1674 0 24.3426 0C24.2949 0 24.2467 0.000316406 24.1988 0.000632813C16.3172 0.0769922 9.9048 6.62766 9.9048 14.6029V23.5489H9.386C6.81151 23.5489 4.7168 25.6435 4.7168 28.2181V49.3308C4.7169 51.9054 6.81151 54 9.38611 54H39.2959C41.8704 54 43.9651 51.9054 43.9651 49.3308V28.2181C43.965 25.6435 41.8704 23.5489 39.2959 23.5489ZM12.6116 14.6029C12.6116 8.1057 17.8213 2.76929 24.2249 2.70717C24.264 2.70686 24.3028 2.70664 24.3417 2.70664C27.4484 2.70664 30.3735 3.9112 32.5897 6.1058C34.8341 8.32855 36.0701 11.2869 36.0701 14.436V15.2933C36.0701 16.4126 35.1594 17.3233 34.0401 17.3233C32.9207 17.3233 32.01 16.4126 32.01 15.2933V14.542C32.01 10.3343 28.6358 6.84714 24.4887 6.76846C22.4104 6.72848 20.4549 7.50874 18.9722 8.96379C17.4887 10.4195 16.6717 12.3628 16.6717 14.4364V23.549H12.6116V14.6029ZM41.2582 49.3308C41.2582 50.4128 40.3779 51.2933 39.2958 51.2933H9.38611C8.30411 51.2933 7.42365 50.4129 7.42365 49.3308V28.2181C7.42365 27.1361 8.304 26.2556 9.38611 26.2556H39.2959C40.3779 26.2556 41.2583 27.136 41.2583 28.2181V49.3308H41.2582Z" fill="#6984F0"></path>
    <path d="M24.341 28.9173C21.0078 28.9173 18.2959 31.6291 18.2959 34.9624C18.2959 36.6741 19.0269 38.3002 20.2809 39.4391V47.2782C20.2809 48.0255 20.8868 48.6315 21.6343 48.6315H27.0478C27.7953 48.6315 28.4012 48.0255 28.4012 47.2782V39.4391C29.6552 38.3002 30.3862 36.6741 30.3862 34.9624C30.3861 31.6291 27.6743 28.9173 24.341 28.9173ZM26.2658 37.6888C25.9075 37.9426 25.6944 38.3544 25.6944 38.7935V45.9248H22.9877V38.7935C22.9877 38.3544 22.7746 37.9426 22.4162 37.6888C21.5311 37.0622 21.0028 36.0431 21.0028 34.9623C21.0028 33.1215 22.5003 31.624 24.3412 31.624C26.182 31.624 27.6796 33.1215 27.6796 34.9623C27.6793 36.043 27.1509 37.0622 26.2658 37.6888Z" fill="#6984F0"></path>
    <path d="M48.6073 22.8167L43.8799 20.0874C43.2328 19.7137 42.4051 19.9354 42.0312 20.5828C41.6574 21.2301 41.8792 22.0576 42.5266 22.4315L47.2539 25.1608C47.467 25.2838 47.6997 25.3425 47.9293 25.3425C48.3971 25.3425 48.852 25.0997 49.1025 24.6655C49.4764 24.0181 49.2545 23.1905 48.6073 22.8167Z" fill="#6984F0"></path>
    <path d="M43.2045 17.1994C43.434 17.1994 43.6668 17.1408 43.8799 17.0178L48.6073 14.2886C49.2546 13.9149 49.4764 13.0872 49.1026 12.4398C48.729 11.7925 47.9011 11.5706 47.2539 11.9444L42.5266 14.6737C41.8792 15.0473 41.6574 15.8751 42.0312 16.5224C42.2819 16.9566 42.7368 17.1994 43.2045 17.1994Z" fill="#6984F0"></path>
  </symbol>
  <symbol fill="none" xmlns="http://www.w3.org/2000/svg" viewBox="0 0 26 26" id="marker">
    <path d="M12.9997 4.85352C12.1812 4.85352 11.3811 5.09622 10.7005 5.55095C10.02 6.00568 9.48956 6.652 9.17634 7.40818C8.86312 8.16436 8.78117 8.99644 8.94085 9.7992C9.10053 10.602 9.49466 11.3393 10.0734 11.9181C10.6522 12.4969 11.3896 12.891 12.1923 13.0507C12.9951 13.2103 13.8272 13.1284 14.5833 12.8152C15.3395 12.502 15.9858 11.9715 16.4406 11.291C16.8953 10.6104 17.138 9.81033 17.138 8.99185C17.138 7.8943 16.702 6.84169 15.9259 6.06561C15.1498 5.28952 14.0972 4.85352 12.9997 4.85352ZM12.9997 11.6857C12.4669 11.6857 11.946 11.5277 11.503 11.2317C11.06 10.9357 10.7147 10.515 10.5108 10.0228C10.3069 9.53051 10.2536 8.98886 10.3575 8.4663C10.4615 7.94373 10.718 7.46373 11.0948 7.08698C11.4715 6.71023 11.9515 6.45367 12.4741 6.34972C12.9967 6.24578 13.5383 6.29913 14.0306 6.50302C14.5228 6.70691 14.9435 7.0522 15.2395 7.4952C15.5356 7.93821 15.6936 8.45905 15.6936 8.99185C15.6916 9.70506 15.407 10.3884 14.902 10.892C14.397 11.3957 13.7129 11.6785 12.9997 11.6785V11.6857Z" fill="#263057"></path>
    <path d="M13 1.44434C10.7504 1.44621 8.59295 2.33822 6.99888 3.92553C5.40481 5.51283 4.50363 7.66645 4.49219 9.916C4.49219 13.2888 6.38441 16.1127 7.77108 18.171L8.02385 18.5466C9.4035 20.5461 10.8835 22.4745 12.4583 24.3243L13.0072 24.9671L13.5561 24.3243C15.1306 22.4744 16.6107 20.546 17.9905 18.5466L18.2433 18.1638C19.6227 16.1054 21.515 13.2888 21.515 9.916C21.5035 7.6652 20.6013 5.51049 19.0057 3.92298C17.4101 2.33547 15.2508 1.44431 13 1.44434ZM17.0372 17.3332L16.7772 17.716C15.535 19.5793 13.8883 21.6666 13 22.6993C12.1477 21.6666 10.465 19.5793 9.22274 17.716L8.96997 17.3332C7.69163 15.4266 5.93663 12.8193 5.93663 9.88711C5.93663 8.95954 6.11933 8.04106 6.4743 7.18409C6.82926 6.32713 7.34954 5.54847 8.00543 4.89258C8.66133 4.23669 9.43998 3.71641 10.2969 3.36144C11.1539 3.00648 12.0724 2.82378 13 2.82378C13.9275 2.82378 14.846 3.00648 15.703 3.36144C16.5599 3.71641 17.3386 4.23669 17.9945 4.89258C18.6504 5.54847 19.1707 6.32713 19.5256 7.18409C19.8806 8.04106 20.0633 8.95954 20.0633 9.88711C20.0633 12.8482 18.3155 15.4554 17.0372 17.3332Z" fill="#263057"></path>
  </symbol>
</svg>



