<svg width="33" height="33" viewBox="0 0 33 33" fill="none" xmlns="http://www.w3.org/2000/svg">
<path fill-rule="evenodd" clip-rule="evenodd" d="M32.5407 16.5C32.5407 25.1195 25.3525 32.1081 16.4867 32.1081C7.62082 32.1081 0.432617 25.1195 0.432617 16.5C0.432617 7.88038 7.62082 0.891846 16.4867 0.891846C25.3525 0.891846 32.5407 7.88038 32.5407 16.5ZM17.0619 12.4145C15.5007 13.0454 12.3795 14.3525 7.69975 16.3348C6.93986 16.6287 6.54118 16.9162 6.50506 17.1971C6.44352 17.6732 7.05625 17.8605 7.88839 18.1141C8.0021 18.1492 8.11983 18.1843 8.24024 18.2234C9.06033 18.4822 10.1627 18.7852 10.7353 18.7969C11.2557 18.8074 11.8363 18.5992 12.4772 18.1726C16.8492 15.302 19.1062 13.8518 19.248 13.8206C19.3483 13.7985 19.4874 13.7698 19.5811 13.8518C19.6747 13.9324 19.6654 14.0859 19.656 14.1275C19.5945 14.3786 17.1944 16.5494 15.9502 17.6732C15.5622 18.023 15.288 18.2715 15.2318 18.3287C15.106 18.4549 14.9776 18.5758 14.8545 18.6916C14.0919 19.4044 13.522 19.9402 14.8866 20.8143C15.5422 21.2344 16.0666 21.5817 16.5897 21.9277C17.1609 22.3062 17.7309 22.6834 18.4693 23.1542C18.6566 23.2739 18.8359 23.3974 19.0112 23.5184C19.6761 23.9801 20.2741 24.3938 21.0126 24.3287C21.4407 24.2897 21.8848 23.8982 22.1096 22.7289C22.6407 19.9637 23.6869 13.9753 23.9291 11.5067C23.9438 11.3017 23.9348 11.0958 23.9023 10.8927C23.8828 10.7288 23.8007 10.5779 23.6722 10.47C23.4809 10.3178 23.1839 10.2853 23.0501 10.2879C22.4467 10.2983 21.521 10.6118 17.0619 12.4145Z" fill="#6984F0"/>
</svg>
