<svg width="32" height="33" viewBox="0 0 32 33" fill="none" xmlns="http://www.w3.org/2000/svg">
<path fill-rule="evenodd" clip-rule="evenodd" d="M3.29856 4.19321C6.47244 1.3502 12.1471 0.926721 14.7866 0.895596C15.6643 0.880543 16.2101 0.915667 16.2101 0.915667C23.5651 0.941774 26.8573 3.284 27.6764 4.0206H27.6929C30.4074 6.3207 31.911 11.4056 30.8997 19.476C30.0008 26.6021 24.9054 27.8557 23.2024 28.2747C23.0379 28.3152 22.9051 28.3479 22.8107 28.3773C22.3451 28.5238 18.3027 29.5113 13.0248 29.0828L11.1079 31.1992C10.9318 31.3828 10.7679 31.5643 10.6116 31.7372C9.8555 32.5737 9.2792 33.2113 8.38322 32.9343C7.5054 32.6684 7.55374 31.3718 7.55374 31.3718V28.1314C-0.160061 26.0039 -0.0634617 18.1905 0.0167566 14.0298C0.113356 9.85413 0.937621 6.47725 3.29856 4.19321ZM15.3968 7.3426C15.4467 7.32288 15.5002 7.313 15.554 7.31353C17.9786 7.31353 20.0404 8.11234 21.6675 9.66481C22.5023 10.5069 23.153 11.506 23.5801 12.6013C24.0072 13.6966 24.2016 14.8653 24.1517 16.0362C24.1507 16.1422 24.1067 16.2434 24.0295 16.3178C23.9523 16.3923 23.8481 16.4339 23.7395 16.4336V16.4497C23.5093 16.4497 23.3274 16.267 23.3274 16.0473C23.2996 13.5595 22.572 11.6568 21.0785 10.2408C20.3471 9.54778 19.4823 9.00295 18.5341 8.63782C17.5859 8.27267 16.573 8.09442 15.554 8.11334C15.3289 8.11334 15.1418 7.93572 15.1418 7.71092C15.142 7.65836 15.1527 7.60632 15.1736 7.55785C15.1944 7.50936 15.2248 7.46537 15.2631 7.42845C15.3015 7.3915 15.3469 7.36232 15.3968 7.3426ZM9.29558 8.39534C9.54868 8.24928 9.84538 8.19227 10.1363 8.23376L10.1343 8.23176C10.4059 8.28213 10.6506 8.42467 10.8249 8.63417C11.6227 9.52285 12.3291 10.4858 12.9341 11.5093C13.3298 12.1947 13.0728 12.8891 12.7038 13.1822L11.933 13.7883C11.5373 14.0813 11.5907 14.6564 11.5907 14.6564C11.5907 14.6564 12.7316 18.8842 17.0083 19.951L17.0248 19.941C17.0248 19.941 17.5983 19.9931 17.9139 19.6168L18.5295 18.8592C18.8183 18.4828 19.5306 18.258 20.2316 18.6293C21.2784 19.2241 22.2644 19.9154 23.1763 20.6936C23.6316 21.0649 23.7386 21.6138 23.423 22.1939V22.2039C23.0868 22.7805 22.6563 23.2994 22.1485 23.7403C21.7317 24.1098 21.2001 24.3324 20.6386 24.3726C20.4618 24.3726 20.286 24.3465 20.0928 24.2893V24.2792C19.434 24.0906 18.3363 23.636 16.5273 22.6746C14.9446 21.8199 13.4801 20.7715 12.1694 19.5546L12.1262 19.5185L12.0892 19.4763L12.0306 19.4342L11.9936 19.382C10.7509 18.1069 9.68205 16.6805 8.81355 15.1381C8.13928 14.0402 7.58731 12.8741 7.16494 11.6618L7.1382 11.6458C7.06312 11.411 7.0416 11.1651 7.07339 10.9192C7.12687 10.5068 7.33035 10.0783 7.7055 9.65478C8.15694 9.15673 8.68635 8.73166 9.27398 8.39534H9.29558ZM16.2704 10.2308C15.7195 10.2308 15.7195 9.42596 16.2653 9.42596H16.3238C18.1071 9.54539 19.5039 10.1465 20.505 11.2183C21.501 12.29 22.0087 13.6277 21.9717 15.2224C21.9709 15.3288 21.9272 15.4307 21.8501 15.506C21.773 15.5813 21.6686 15.624 21.5596 15.6248L21.5431 15.6037C21.4672 15.6033 21.3935 15.5827 21.3298 15.5447C21.3025 15.5286 21.2771 15.5093 21.254 15.487C21.177 15.4128 21.1328 15.312 21.1309 15.2063C21.1718 14.5818 21.0839 13.9556 20.8724 13.3649C20.6609 12.7741 20.3301 12.2308 19.8996 11.7672C19.4277 11.2909 18.8643 10.91 18.2416 10.6464C17.6188 10.3828 16.949 10.2415 16.2704 10.2308ZM16.9138 12.4105C16.3567 12.3944 16.3783 11.5735 16.9405 11.5896L16.9569 11.5906C18.734 11.6839 19.7352 12.6935 19.8318 14.4858C19.8351 14.5394 19.8275 14.5931 19.8093 14.6438C19.7912 14.6945 19.7628 14.7411 19.726 14.781C19.6891 14.8209 19.6445 14.8533 19.5948 14.8761C19.545 14.899 19.491 14.912 19.4361 14.9143H19.4196C19.3127 14.9138 19.2103 14.8724 19.1342 14.7991C19.0581 14.7257 19.0145 14.6263 19.0126 14.5219C18.9263 13.1471 18.2685 12.4787 16.9138 12.4105Z" fill="#6984F0"/>
</svg>
