<svg width="33" height="33" viewBox="0 0 33 33" fill="none" xmlns="http://www.w3.org/2000/svg">
<path d="M16.432 0C7.56546 0 0.37793 7.18753 0.37793 16.0541C0.37793 24.9206 7.56546 32.1081 16.432 32.1081C25.2985 32.1081 32.486 24.9206 32.486 16.0541C32.486 7.18753 25.2985 0 16.432 0ZM22.6061 18.1127C22.6061 18.1127 24.0259 19.514 24.3754 20.1646C24.3854 20.1779 24.3904 20.1913 24.3938 20.198C24.5359 20.4371 24.5694 20.6228 24.4991 20.7616C24.3821 20.9923 23.9807 21.1061 23.8436 21.1161H21.3352C21.1612 21.1161 20.7967 21.0709 20.3552 20.7666C20.0157 20.5291 19.6813 20.1395 19.3552 19.7599C18.8685 19.1946 18.4471 18.7063 18.0223 18.7063C17.9684 18.7062 17.9148 18.7147 17.8635 18.7314C17.5424 18.8351 17.131 19.2933 17.131 20.5141C17.131 20.8954 16.83 21.1144 16.6176 21.1144H15.4687C15.0774 21.1144 13.0389 20.9773 11.2328 19.0726C9.02203 16.7397 7.032 12.0606 7.01528 12.0171C6.88985 11.7144 7.14906 11.5522 7.43168 11.5522H9.96521C10.303 11.5522 10.4134 11.7579 10.4903 11.9402C10.5806 12.1526 10.9117 12.9971 11.4552 13.947C12.3365 15.4955 12.8767 16.1243 13.3098 16.1243C13.391 16.1233 13.4708 16.1027 13.5423 16.0641C14.1075 15.7497 14.0021 13.7346 13.9771 13.3165C13.9771 13.2379 13.9754 12.4151 13.6861 12.0205C13.4787 11.7345 13.1259 11.6258 12.9118 11.5857C12.9984 11.4661 13.1126 11.3692 13.2446 11.3031C13.6326 11.1091 14.3316 11.0806 15.0256 11.0806H15.4119C16.1644 11.0907 16.3584 11.1392 16.631 11.2077C17.1828 11.3398 17.1946 11.696 17.1461 12.9152C17.131 13.2613 17.116 13.6526 17.116 14.1142C17.116 14.2145 17.1109 14.3216 17.1109 14.4353C17.0942 15.0557 17.0741 15.7597 17.5123 16.049C17.5694 16.0849 17.6355 16.104 17.7029 16.1042C17.8551 16.1042 18.3133 16.1042 19.5542 13.9754C19.9368 13.2902 20.2694 12.5781 20.5492 11.8449C20.5743 11.8014 20.6478 11.6676 20.7348 11.6158C20.799 11.5831 20.8701 11.5664 20.9422 11.5673H23.9205C24.245 11.5673 24.4674 11.6158 24.5092 11.7412C24.5828 11.9402 24.4958 12.5472 23.1362 14.3884L22.5292 15.1895C21.2967 16.8049 21.2967 16.8869 22.6061 18.1127Z" fill="#6984F0"/>
</svg>
