<svg width="54" height="54" viewBox="0 0 54 54" fill="none" xmlns="http://www.w3.org/2000/svg">
<path d="M39.2959 23.5489H19.3785V14.4361C19.3785 13.0955 19.9075 11.8381 20.868 10.8959C21.8279 9.95403 23.0947 9.45496 24.4376 9.47468C27.1207 9.52552 29.3035 11.7988 29.3035 14.542V15.2933C29.3035 17.9052 31.4284 20.0301 34.0403 20.0301C36.6522 20.0301 38.7771 17.9051 38.7771 15.2933V14.4361C38.7771 10.5592 37.2561 6.9177 34.4944 4.18268C31.7674 1.48194 28.1674 0 24.3426 0C24.2949 0 24.2467 0.000316406 24.1988 0.000632813C16.3172 0.0769922 9.9048 6.62766 9.9048 14.6029V23.5489H9.386C6.81151 23.5489 4.7168 25.6435 4.7168 28.2181V49.3308C4.7169 51.9054 6.81151 54 9.38611 54H39.2959C41.8704 54 43.9651 51.9054 43.9651 49.3308V28.2181C43.965 25.6435 41.8704 23.5489 39.2959 23.5489ZM12.6116 14.6029C12.6116 8.1057 17.8213 2.76929 24.2249 2.70717C24.264 2.70686 24.3028 2.70664 24.3417 2.70664C27.4484 2.70664 30.3735 3.9112 32.5897 6.1058C34.8341 8.32855 36.0701 11.2869 36.0701 14.436V15.2933C36.0701 16.4126 35.1594 17.3233 34.0401 17.3233C32.9207 17.3233 32.01 16.4126 32.01 15.2933V14.542C32.01 10.3343 28.6358 6.84714 24.4887 6.76846C22.4104 6.72848 20.4549 7.50874 18.9722 8.96379C17.4887 10.4195 16.6717 12.3628 16.6717 14.4364V23.549H12.6116V14.6029ZM41.2582 49.3308C41.2582 50.4128 40.3779 51.2933 39.2958 51.2933H9.38611C8.30411 51.2933 7.42365 50.4129 7.42365 49.3308V28.2181C7.42365 27.1361 8.304 26.2556 9.38611 26.2556H39.2959C40.3779 26.2556 41.2583 27.136 41.2583 28.2181V49.3308H41.2582Z" fill="#6984F0"/>
<path d="M24.341 28.9173C21.0078 28.9173 18.2959 31.6291 18.2959 34.9624C18.2959 36.6741 19.0269 38.3002 20.2809 39.4391V47.2782C20.2809 48.0255 20.8868 48.6315 21.6343 48.6315H27.0478C27.7953 48.6315 28.4012 48.0255 28.4012 47.2782V39.4391C29.6552 38.3002 30.3862 36.6741 30.3862 34.9624C30.3861 31.6291 27.6743 28.9173 24.341 28.9173ZM26.2658 37.6888C25.9075 37.9426 25.6944 38.3544 25.6944 38.7935V45.9248H22.9877V38.7935C22.9877 38.3544 22.7746 37.9426 22.4162 37.6888C21.5311 37.0622 21.0028 36.0431 21.0028 34.9623C21.0028 33.1215 22.5003 31.624 24.3412 31.624C26.182 31.624 27.6796 33.1215 27.6796 34.9623C27.6793 36.043 27.1509 37.0622 26.2658 37.6888Z" fill="#6984F0"/>
<path d="M48.6073 22.8167L43.8799 20.0874C43.2328 19.7137 42.4051 19.9354 42.0312 20.5828C41.6574 21.2301 41.8792 22.0576 42.5266 22.4315L47.2539 25.1608C47.467 25.2838 47.6997 25.3425 47.9293 25.3425C48.3971 25.3425 48.852 25.0997 49.1025 24.6655C49.4764 24.0181 49.2545 23.1905 48.6073 22.8167Z" fill="#6984F0"/>
<path d="M43.2045 17.1994C43.434 17.1994 43.6668 17.1408 43.8799 17.0178L48.6073 14.2886C49.2546 13.9149 49.4764 13.0872 49.1026 12.4398C48.729 11.7925 47.9011 11.5706 47.2539 11.9444L42.5266 14.6737C41.8792 15.0473 41.6574 15.8751 42.0312 16.5224C42.2819 16.9566 42.7368 17.1994 43.2045 17.1994Z" fill="#6984F0"/>
</svg>
