<svg width="26" height="26" viewBox="0 0 26 26" fill="none" xmlns="http://www.w3.org/2000/svg">
<path d="M12.9997 4.85352C12.1812 4.85352 11.3811 5.09622 10.7005 5.55095C10.02 6.00568 9.48956 6.652 9.17634 7.40818C8.86312 8.16436 8.78117 8.99644 8.94085 9.7992C9.10053 10.602 9.49466 11.3393 10.0734 11.9181C10.6522 12.4969 11.3896 12.891 12.1923 13.0507C12.9951 13.2103 13.8272 13.1284 14.5833 12.8152C15.3395 12.502 15.9858 11.9715 16.4406 11.291C16.8953 10.6104 17.138 9.81033 17.138 8.99185C17.138 7.8943 16.702 6.84169 15.9259 6.06561C15.1498 5.28952 14.0972 4.85352 12.9997 4.85352ZM12.9997 11.6857C12.4669 11.6857 11.946 11.5277 11.503 11.2317C11.06 10.9357 10.7147 10.515 10.5108 10.0228C10.3069 9.53051 10.2536 8.98886 10.3575 8.4663C10.4615 7.94373 10.718 7.46373 11.0948 7.08698C11.4715 6.71023 11.9515 6.45367 12.4741 6.34972C12.9967 6.24578 13.5383 6.29913 14.0306 6.50302C14.5228 6.70691 14.9435 7.0522 15.2395 7.4952C15.5356 7.93821 15.6936 8.45905 15.6936 8.99185C15.6916 9.70506 15.407 10.3884 14.902 10.892C14.397 11.3957 13.7129 11.6785 12.9997 11.6785V11.6857Z" fill="#263057"/>
<path d="M13 1.44434C10.7504 1.44621 8.59295 2.33822 6.99888 3.92553C5.40481 5.51283 4.50363 7.66645 4.49219 9.916C4.49219 13.2888 6.38441 16.1127 7.77108 18.171L8.02385 18.5466C9.4035 20.5461 10.8835 22.4745 12.4583 24.3243L13.0072 24.9671L13.5561 24.3243C15.1306 22.4744 16.6107 20.546 17.9905 18.5466L18.2433 18.1638C19.6227 16.1054 21.515 13.2888 21.515 9.916C21.5035 7.6652 20.6013 5.51049 19.0057 3.92298C17.4101 2.33547 15.2508 1.44431 13 1.44434ZM17.0372 17.3332L16.7772 17.716C15.535 19.5793 13.8883 21.6666 13 22.6993C12.1477 21.6666 10.465 19.5793 9.22274 17.716L8.96997 17.3332C7.69163 15.4266 5.93663 12.8193 5.93663 9.88711C5.93663 8.95954 6.11933 8.04106 6.4743 7.18409C6.82926 6.32713 7.34954 5.54847 8.00543 4.89258C8.66133 4.23669 9.43998 3.71641 10.2969 3.36144C11.1539 3.00648 12.0724 2.82378 13 2.82378C13.9275 2.82378 14.846 3.00648 15.703 3.36144C16.5599 3.71641 17.3386 4.23669 17.9945 4.89258C18.6504 5.54847 19.1707 6.32713 19.5256 7.18409C19.8806 8.04106 20.0633 8.95954 20.0633 9.88711C20.0633 12.8482 18.3155 15.4554 17.0372 17.3332Z" fill="#263057"/>
</svg>
