<svg width="14" height="24" viewBox="0 0 14 24" fill="none" xmlns="http://www.w3.org/2000/svg">
<path fill-rule="evenodd" clip-rule="evenodd" d="M12.8696 0.880477C12.9511 0.961757 13.0157 1.05831 13.0598 1.16462C13.104 1.27092 13.1267 1.38488 13.1267 1.49998C13.1267 1.61507 13.104 1.72903 13.0598 1.83534C13.0157 1.94164 12.9511 2.0382 12.8696 2.11948L2.98735 12L12.8696 21.8805C13.0339 22.0448 13.1262 22.2676 13.1262 22.5C13.1262 22.7323 13.0339 22.9552 12.8696 23.1195C12.7053 23.2838 12.4825 23.3761 12.2501 23.3761C12.0177 23.3761 11.7949 23.2838 11.6306 23.1195L1.1306 12.6195C1.04911 12.5382 0.984463 12.4416 0.940352 12.3353C0.89624 12.229 0.873535 12.1151 0.873535 12C0.873535 11.8849 0.89624 11.7709 0.940352 11.6646C0.984463 11.5583 1.04911 11.4618 1.1306 11.3805L11.6306 0.880477C11.7119 0.798992 11.8084 0.734342 11.9147 0.69023C12.021 0.646119 12.135 0.623413 12.2501 0.623413C12.3652 0.623413 12.4792 0.646119 12.5855 0.69023C12.6918 0.734342 12.7883 0.798992 12.8696 0.880477Z" fill="#6984F0"/>
</svg>
