<svg width="0" height="0" class="hidden">
  <symbol fill="none" xmlns="http://www.w3.org/2000/svg" viewBox="0 0 16 24" id="header-phone">
    <path d="M6.58071 17.9592C6.38843 17.9592 6.20402 18.0356 6.06806 18.1716C5.9321 18.3075 5.85571 18.4919 5.85571 18.6842C5.85571 18.8765 5.9321 19.0609 6.06806 19.1969C6.20402 19.3328 6.38843 19.4092 6.58071 19.4092H9.48071C9.67299 19.4092 9.8574 19.3328 9.99336 19.1969C10.1293 19.0609 10.2057 18.8765 10.2057 18.6842C10.2057 18.4919 10.1293 18.3075 9.99336 18.1716C9.8574 18.0356 9.67299 17.9592 9.48071 17.9592H6.58071Z" fill="#263057"></path>
    <path d="M3.68076 0.559204C2.91163 0.559204 2.17401 0.864739 1.63015 1.40859C1.0863 1.95245 0.780762 2.69008 0.780762 3.4592V20.8592C0.780762 21.6283 1.0863 22.366 1.63015 22.9098C2.17401 23.4537 2.91163 23.7592 3.68076 23.7592H12.3808C13.1499 23.7592 13.8875 23.4537 14.4314 22.9098C14.9752 22.366 15.2808 21.6283 15.2808 20.8592V3.4592C15.2808 2.69008 14.9752 1.95245 14.4314 1.40859C13.8875 0.864739 13.1499 0.559204 12.3808 0.559204H3.68076ZM2.23076 3.4592C2.23076 3.07464 2.38353 2.70583 2.65546 2.4339C2.92739 2.16197 3.2962 2.0092 3.68076 2.0092H12.3808C12.7653 2.0092 13.1341 2.16197 13.4061 2.4339C13.678 2.70583 13.8308 3.07464 13.8308 3.4592V20.8592C13.8308 21.2438 13.678 21.6126 13.4061 21.8845C13.1341 22.1564 12.7653 22.3092 12.3808 22.3092H3.68076C3.2962 22.3092 2.92739 22.1564 2.65546 21.8845C2.38353 21.6126 2.23076 21.2438 2.23076 20.8592V3.4592Z" fill="#263057"></path>
  </symbol>
    <symbol fill="none" xmlns="http://www.w3.org/2000/svg" viewBox="0 0 25 24" id="telegram">
    <path fill-rule="evenodd" clip-rule="evenodd" d="M25 12C25 18.627 19.4031 24 12.5 24C5.59687 24 0 18.627 0 12C0 5.373 5.59687 0 12.5 0C19.4031 0 25 5.373 25 12ZM12.9479 8.859C11.7323 9.344 9.30208 10.349 5.65833 11.873C5.06667 12.099 4.75625 12.32 4.72812 12.536C4.68021 12.902 5.15729 13.046 5.80521 13.241C5.89375 13.268 5.98542 13.295 6.07917 13.325C6.71771 13.524 7.57604 13.757 8.02188 13.766C8.42708 13.774 8.87917 13.614 9.37813 13.286C12.7823 11.079 14.5396 9.964 14.65 9.94C14.7281 9.923 14.8365 9.901 14.9094 9.964C14.9823 10.026 14.975 10.144 14.9677 10.176C14.9198 10.369 13.051 12.038 12.0823 12.902C11.7802 13.171 11.5667 13.362 11.5229 13.406C11.425 13.503 11.325 13.596 11.2292 13.685C10.6354 14.233 10.1917 14.645 11.2542 15.317C11.7646 15.64 12.1729 15.907 12.5802 16.173C13.025 16.464 13.4688 16.754 14.0437 17.116C14.1896 17.208 14.3292 17.303 14.4656 17.396C14.9833 17.751 15.449 18.069 16.024 18.019C16.3573 17.989 16.7031 17.688 16.8781 16.789C17.2917 14.663 18.1062 10.059 18.2948 8.161C18.3063 8.00341 18.2993 7.84509 18.274 7.689C18.2588 7.56293 18.1949 7.44693 18.0948 7.364C17.9458 7.247 17.7146 7.222 17.6104 7.224C17.1406 7.232 16.4198 7.473 12.9479 8.859Z" fill="white"></path>
  </symbol>
  <symbol fill="none" xmlns="http://www.w3.org/2000/svg" viewBox="0 0 25 25" id="viber">
    <path fill-rule="evenodd" clip-rule="evenodd" d="M3.14152 2.57085C5.554 0.357564 9.86729 0.0278829 11.8736 0.00365197C12.5408 -0.00806678 12.9556 0.019277 12.9556 0.019277C18.5462 0.0396017 21.0486 1.86303 21.6712 2.43647H21.6837C23.747 4.2271 24.8899 8.18569 24.1212 14.4685C23.438 20.0162 19.5649 20.9921 18.2705 21.3183C18.1454 21.3498 18.0445 21.3753 17.9728 21.3982C17.6189 21.5122 14.5462 22.281 10.5345 21.9474L9.07743 23.5951C8.94358 23.738 8.81895 23.8792 8.70018 24.0139C8.12547 24.6651 7.68742 25.1614 7.00639 24.9458C6.33915 24.7388 6.3759 23.7294 6.3759 23.7294V21.2068C0.512615 19.5505 0.58604 13.4677 0.647014 10.2287C0.720439 6.97788 1.34697 4.34897 3.14152 2.57085ZM12.3374 5.02265C12.3753 5.0073 12.416 4.99961 12.4569 5.00002C14.2998 5.00002 15.867 5.62189 17.1038 6.8305C17.7383 7.48609 18.233 8.26386 18.5575 9.11655C18.8822 9.96924 19.03 10.879 18.992 11.7906C18.9913 11.8731 18.9579 11.9519 18.8992 12.0099C18.8405 12.0678 18.7613 12.1002 18.6788 12.1V12.1125C18.5038 12.1125 18.3655 11.9703 18.3655 11.7992C18.3444 9.86252 17.7913 8.38128 16.6561 7.27892C16.1001 6.73939 15.4428 6.31524 14.7221 6.03098C14.0014 5.74671 13.2315 5.60795 12.4569 5.62267C12.2858 5.62267 12.1436 5.4844 12.1436 5.30939C12.1437 5.26847 12.1519 5.22796 12.1678 5.19022C12.1836 5.15247 12.2067 5.11823 12.2358 5.08948C12.265 5.06072 12.2995 5.038 12.3374 5.02265ZM7.69987 5.84221C7.89225 5.72851 8.11778 5.68412 8.33891 5.71642L8.33738 5.71486C8.54386 5.75408 8.72984 5.86504 8.86235 6.02814C9.46873 6.71998 10.0057 7.46967 10.4655 8.26642C10.7663 8.80002 10.571 9.34064 10.2905 9.56878L9.70457 10.0406C9.40379 10.2688 9.44438 10.7164 9.44438 10.7164C9.44438 10.7164 10.3116 14.0078 13.5624 14.8383L13.5749 14.8305C13.5749 14.8305 14.0108 14.8711 14.2507 14.5781L14.7186 13.9883C14.9382 13.6953 15.4795 13.5203 16.0124 13.8094C16.808 14.2724 17.5575 14.8106 18.2507 15.4164C18.5967 15.7055 18.678 16.1328 18.4382 16.5844V16.5922C18.1826 17.0411 17.8554 17.4451 17.4694 17.7883C17.1526 18.0759 16.7485 18.2492 16.3218 18.2805C16.1874 18.2805 16.0538 18.2602 15.9069 18.2156V18.2078C15.4061 18.061 14.5718 17.7071 13.1968 16.9586C11.9937 16.2933 10.8805 15.477 9.88426 14.5297L9.85142 14.5016L9.82328 14.4688L9.77879 14.436L9.75065 14.3953C8.80607 13.4027 7.99363 12.2922 7.33348 11.0914C6.82096 10.2367 6.40141 9.32892 6.08036 8.38518L6.06004 8.37267C6.00297 8.18987 5.98661 7.99846 6.01078 7.80706C6.05143 7.48595 6.2061 7.15236 6.49125 6.82268C6.83439 6.43496 7.2368 6.10404 7.68345 5.84221H7.69987ZM13.0014 7.27111C12.5827 7.27111 12.5827 6.64455 12.9975 6.64455H13.042C14.3975 6.73752 15.4593 7.20549 16.2202 8.03986C16.9772 8.87424 17.3631 9.91564 17.335 11.157C17.3344 11.2399 17.3012 11.3193 17.2426 11.3779C17.184 11.4365 17.1047 11.4697 17.0218 11.4703L17.0093 11.4539C16.9516 11.4536 16.8955 11.4376 16.8471 11.408C16.8264 11.3954 16.807 11.3804 16.7895 11.3631C16.731 11.3053 16.6974 11.2268 16.696 11.1446C16.727 10.6584 16.6602 10.1709 16.4994 9.71099C16.3387 9.2511 16.0873 8.82815 15.7601 8.46721C15.4013 8.09639 14.9731 7.79989 14.4997 7.59466C14.0264 7.38942 13.5173 7.27949 13.0014 7.27111ZM13.4905 8.96799C13.0671 8.95549 13.0835 8.31643 13.5108 8.32892L13.5233 8.3297C14.8741 8.40236 15.6351 9.1883 15.7085 10.5836C15.711 10.6254 15.7052 10.6672 15.6914 10.7066C15.6776 10.7461 15.656 10.7824 15.628 10.8135C15.6 10.8445 15.5661 10.8697 15.5283 10.8875C15.4905 10.9053 15.4494 10.9154 15.4077 10.9172H15.3952C15.3139 10.9168 15.2361 10.8846 15.1783 10.8275C15.1204 10.7704 15.0873 10.693 15.0858 10.6117C15.0202 9.54143 14.5202 9.02111 13.4905 8.96799Z" fill="white"></path>
  </symbol>
  <symbol fill="none" xmlns="http://www.w3.org/2000/svg" viewBox="0 0 26 26" id="vk">
    <path d="M13 0.519531C6.10742 0.519531 0.52002 6.10693 0.52002 12.9995C0.52002 19.8921 6.10742 25.4795 13 25.4795C19.8926 25.4795 25.48 19.8921 25.48 12.9995C25.48 6.10693 19.8926 0.519531 13 0.519531ZM17.7996 14.5998C17.7996 14.5998 18.9033 15.6892 19.175 16.1949C19.1828 16.2053 19.1867 16.2157 19.1893 16.2209C19.2998 16.4068 19.3258 16.5511 19.2712 16.659C19.1802 16.8384 18.8682 16.9268 18.7616 16.9346H16.8116C16.6764 16.9346 16.393 16.8995 16.0498 16.6629C15.7859 16.4783 15.5259 16.1754 15.2724 15.8803C14.8941 15.4409 14.5665 15.0613 14.2363 15.0613C14.1944 15.0613 14.1527 15.0678 14.1128 15.0808C13.8632 15.1614 13.5434 15.5176 13.5434 16.4666C13.5434 16.763 13.3094 16.9333 13.1443 16.9333H12.2512C11.947 16.9333 10.3623 16.8267 8.95832 15.346C7.23972 13.5325 5.69272 9.89513 5.67972 9.86133C5.58222 9.62603 5.78372 9.49993 6.00342 9.49993H7.97292C8.23552 9.49993 8.32132 9.65983 8.38112 9.80153C8.45132 9.96663 8.70872 10.6231 9.13122 11.3615C9.81632 12.5653 10.2362 13.0541 10.5729 13.0541C10.6361 13.0534 10.6981 13.0373 10.7536 13.0073C11.193 12.7629 11.1111 11.1964 11.0916 10.8714C11.0916 10.8103 11.0903 10.1707 10.8654 9.86393C10.7042 9.64163 10.4299 9.55713 10.2635 9.52593C10.3309 9.433 10.4196 9.35764 10.5222 9.30623C10.8238 9.15543 11.3672 9.13333 11.9067 9.13333H12.207C12.792 9.14113 12.9428 9.17883 13.1547 9.23213C13.5837 9.33483 13.5928 9.61173 13.5551 10.5594C13.5434 10.8285 13.5317 11.1327 13.5317 11.4915C13.5317 11.5695 13.5278 11.6527 13.5278 11.7411C13.5148 12.2234 13.4992 12.7707 13.8398 12.9956C13.8842 13.0235 13.9356 13.0383 13.988 13.0385C14.1063 13.0385 14.4625 13.0385 15.4271 11.3836C15.7246 10.851 15.9831 10.2975 16.2006 9.72743C16.2201 9.69363 16.2773 9.58963 16.3449 9.54933C16.3948 9.5239 16.4501 9.51096 16.5061 9.51163H18.8214C19.0736 9.51163 19.2465 9.54933 19.279 9.64683C19.3362 9.80153 19.2686 10.2734 18.2117 11.7047L17.7398 12.3274C16.7817 13.5832 16.7817 13.6469 17.7996 14.5998Z" fill="white"></path>
  </symbol>
  <symbol fill="none" xmlns="http://www.w3.org/2000/svg" viewBox="0 0 24 24" id="wa">
    <path d="M0.00481605 24L1.62722 18.0384C0.558181 16.2058 -0.00346876 14.1216 1.61187e-05 12C1.61187e-05 5.3724 5.37241 0 12 0C18.6276 0 24 5.3724 24 12C24 18.6276 18.6276 24 12 24C9.87934 24.0034 7.796 23.4422 5.96401 22.374L0.00481605 24ZM7.66921 6.3696C7.51425 6.37922 7.36282 6.42003 7.22401 6.4896C7.09384 6.56331 6.97501 6.65547 6.87121 6.7632C6.72721 6.8988 6.64561 7.0164 6.55801 7.1304C6.11451 7.70759 5.87594 8.4161 5.88001 9.14399C5.88241 9.73199 6.03601 10.3044 6.27601 10.8396C6.76681 11.922 7.57441 13.068 8.64121 14.13C8.89801 14.3856 9.14881 14.6424 9.41881 14.8812C10.7429 16.0469 12.3207 16.8876 14.0268 17.3364L14.7096 17.4408C14.9316 17.4528 15.1536 17.436 15.3768 17.4252C15.7263 17.4071 16.0675 17.3125 16.3764 17.148C16.5336 17.067 16.6869 16.979 16.836 16.884C16.836 16.884 16.8876 16.8504 16.986 16.776C17.148 16.656 17.2476 16.5708 17.382 16.4304C17.4816 16.3272 17.568 16.206 17.634 16.068C17.7276 15.8724 17.8212 15.4992 17.8596 15.1884C17.8884 14.9508 17.88 14.8212 17.8764 14.7408C17.8716 14.6124 17.7648 14.4792 17.6484 14.4228L16.95 14.1096C16.95 14.1096 15.906 13.6548 15.2688 13.3644C15.2016 13.3351 15.1296 13.3184 15.0564 13.3152C14.9743 13.3068 14.8913 13.316 14.8131 13.3423C14.7349 13.3686 14.6632 13.4113 14.6028 13.4676V13.4652C14.5968 13.4652 14.5164 13.5336 13.6488 14.5848C13.599 14.6517 13.5304 14.7023 13.4518 14.7301C13.3731 14.7578 13.288 14.7616 13.2072 14.7408C13.129 14.7199 13.0524 14.6934 12.978 14.6616C12.8292 14.5992 12.7776 14.5752 12.6756 14.5308L12.6696 14.5284C11.9831 14.2287 11.3475 13.8238 10.7856 13.3284C10.6344 13.1964 10.494 13.0524 10.35 12.9132C9.8779 12.4611 9.46647 11.9496 9.12601 11.3916L9.05521 11.2776C9.00436 11.201 8.96324 11.1184 8.93281 11.0316C8.88721 10.8552 9.00601 10.7136 9.00601 10.7136C9.00601 10.7136 9.29761 10.3944 9.43321 10.2216C9.54612 10.078 9.65146 9.92858 9.74881 9.77399C9.89041 9.54599 9.93481 9.31199 9.86041 9.13079C9.52441 8.30999 9.17641 7.49279 8.81881 6.6816C8.74801 6.5208 8.53801 6.4056 8.34721 6.3828C8.28241 6.3756 8.21761 6.3684 8.15281 6.3636C7.99166 6.35559 7.83017 6.35719 7.66921 6.3684V6.3696Z" fill="white"></path>
  </symbol>


  <symbol  xmlns="http://www.w3.org/2000/svg" viewBox="0 0 136 18" id="sitex-logo-white">
  
      <circle cx="35.9766" cy="1.67733" r="1.67733" fill="white"></circle>
      <path d="M11.0564 9.25208C11.0564 12.1658 12.7817 14.5237 16.0405 14.5237C20.4494 14.5237 20.737 10.5939 20.737 10.5939H18.0533C18.0533 10.5939 17.9574 12.5109 16.0405 12.5109C14.3344 12.5109 13.7401 11.054 13.7401 9.25208C13.7401 7.45015 14.3344 5.99327 16.0405 5.99327C17.9574 5.99327 18.0533 7.91021 18.0533 7.91021H20.737C20.737 7.91021 20.4494 3.98047 16.0405 3.98047C12.7817 3.98047 11.0564 6.33832 11.0564 9.25208Z" ></path>
      <path fill-rule="evenodd" clip-rule="evenodd" d="M24.2842 7.33513C24.3225 6.26164 24.9551 5.80157 26.1053 5.80157C27.1596 5.80157 27.7347 6.26164 27.7347 7.04759C27.7347 7.97461 26.6419 8.22198 25.312 8.52305C25.0468 8.58308 24.7723 8.64523 24.495 8.71533C22.8465 9.13706 21.3129 9.98052 21.3129 11.84C21.3129 13.6802 22.6548 14.5237 24.4759 14.5237C27.0254 14.5237 27.6388 12.3192 27.6388 12.3192H27.7347V14.2361H30.4184V7.43098C30.4184 4.8431 28.5015 3.98047 26.1053 3.98047C23.8049 3.98047 21.7538 4.78559 21.6004 7.33513H24.2842ZM27.7347 9.21374C27.7347 10.6898 27.2554 12.7984 25.4343 12.7984C24.5717 12.7984 24.035 12.3192 24.035 11.5524C24.035 10.6706 24.7634 10.2297 25.626 10.0189L25.7291 9.99314C26.4721 9.80802 27.3134 9.59838 27.7347 9.21374Z" fill="white"></path>
      <path d="M40.6674 4.26801H37.9836V9.44377C37.9836 11.4566 37.2168 12.3192 35.7791 12.3192C34.5331 12.3192 34.0539 11.5524 34.0539 9.82716V4.26801H31.3701V10.4022C31.3701 12.7026 32.1369 14.5237 34.9165 14.5237C37.121 14.5237 37.9836 12.6067 37.9836 12.6067H38.0795V14.2361H40.6674V4.26801Z" fill="white"></path>
      <path d="M41.8234 6.28075V4.1721H50.833V6.28075H47.5742V14.4757H44.8905V6.28075H41.8234Z" fill="white"></path>
      <path d="M57.0161 9.64729H61.2334C61.1759 11.315 60.5433 12.6186 58.9331 12.6186C57.0161 12.6186 56.9203 10.7016 56.9203 10.7016H54.2366C54.2366 10.7016 54.5241 14.6314 58.9331 14.6314C62.1919 14.6314 63.9172 12.2735 63.9172 9.35975C63.9172 6.44598 62.1919 4.08813 58.9331 4.08813C54.5241 4.08813 54.2366 8.01788 54.2366 8.01788H56.9203C56.9203 8.01788 57.0161 6.10093 58.9331 6.10093C60.4858 6.10093 61.0992 7.30861 61.2143 8.88051H57.0161V9.64729Z" ></path>
      <path d="M64.7783 14.3438H67.462V11.315L68.5547 10.184L71.0851 14.3438H74.363L70.4141 8.26708L74.1713 4.37568H71.0084L67.462 8.40127V4.37568H64.7783V14.3438Z" fill="white"></path>
      <path d="M73.9864 9.35975C73.9864 12.2735 75.7116 14.6314 78.9705 14.6314C83.3794 14.6314 83.667 10.7016 83.667 10.7016H80.9832C80.9832 10.7016 80.8874 12.6186 78.9705 12.6186C77.2644 12.6186 76.6701 11.1617 76.6701 9.35975C76.6701 7.55781 77.2644 6.10093 78.9705 6.10093C80.8874 6.10093 80.9832 8.01788 80.9832 8.01788H83.667C83.667 8.01788 83.3794 4.08813 78.9705 4.08813C75.7116 4.08813 73.9864 6.44598 73.9864 9.35975Z" ></path>
      <path d="M84.5281 14.3438H87.2118V9.16805C87.2118 7.15525 87.9786 6.29263 89.4163 6.29263C90.6623 6.29263 91.1416 7.05941 91.1416 8.78466V14.3438H93.8253V8.20958C93.8253 5.90924 93.0585 4.08813 90.279 4.08813C88.0745 4.08813 87.2118 6.00508 87.2118 6.00508H87.116V4.37568H84.5281V14.3438Z" ></path>
      <path d="M94.6909 9.35975C94.6909 12.2735 96.3203 14.6314 99.675 14.6314C103.796 14.6314 104.372 11.085 104.372 11.085H101.688C101.688 11.085 101.4 12.6186 99.7708 12.6186C98.1606 12.6186 97.5089 11.4684 97.3938 9.93483H104.448C104.448 9.93483 104.467 9.58978 104.467 9.35975C104.467 6.44598 102.953 4.08813 99.675 4.08813C96.397 4.08813 94.6909 6.44598 94.6909 9.35975ZM99.675 6.10093C100.998 6.10093 101.534 6.98273 101.707 8.20958H97.4705C97.7006 6.98273 98.3523 6.10093 99.675 6.10093Z" ></path>
      <path d="M105.326 17.7943H108.01V13.2895H108.106C108.106 13.2895 108.968 14.6314 111.077 14.6314C113.953 14.6314 115.39 12.1393 115.39 9.35975C115.39 6.58017 113.953 4.08813 111.077 4.08813C108.873 4.08813 108.01 5.71754 108.01 5.71754H107.914V4.37568H105.326V17.7943ZM107.914 9.35975C107.914 7.55781 108.681 6.10093 110.31 6.10093C111.94 6.10093 112.707 7.55781 112.707 9.35975C112.707 11.1617 111.94 12.6186 110.31 12.6186C108.681 12.6186 107.914 11.1617 107.914 9.35975Z"></path>
      <path d="M115.821 4.2799V6.38854H118.888V14.5835H121.572V13.026C121.572 13.026 121.572 11.9477 121.572 11.0851V6.38854H124.83V4.2799H115.821Z" fill="white"></path>
      <path d="M136 9.07472H132.375C132.273 9.07472 132.217 8.95986 132.157 8.87626L128.853 4.28226C128.795 4.19733 128.853 4.08813 128.945 4.08813H132.305C132.363 4.08813 132.421 4.1124 132.455 4.16093L135.85 8.98979C135.885 9.03832 135.942 9.07472 136 9.07472Z" ></path>
      <path d="M132.26 9.72022C132.294 9.67344 132.34 9.65005 132.386 9.65005H136C135.942 9.65005 135.885 9.67344 135.85 9.72022L132.444 14.3747C132.409 14.4215 132.352 14.4448 132.294 14.4448H128.945C128.853 14.4448 128.795 14.3396 128.853 14.2577L132.26 9.72022Z" ></path>
      <path d="M0 9.07472H3.62542C3.7273 9.07472 3.78267 8.95986 3.8428 8.87626L7.14692 4.28226C7.20465 4.19733 7.14692 4.08813 7.05455 4.08813H3.69469C3.63696 4.08813 3.57923 4.1124 3.54459 4.16093L0.150095 8.98979C0.115458 9.03832 0.0577296 9.07472 0 9.07472Z" ></path>
      <path d="M3.74037 9.72022C3.70585 9.67344 3.65981 9.65005 3.61378 9.65005H0C0.0575442 9.65005 0.115091 9.67344 0.149617 9.72022L3.55624 14.3747C3.59076 14.4215 3.6483 14.4448 3.70585 14.4448H7.05492C7.14699 14.4448 7.20454 14.3396 7.14699 14.2577L3.74037 9.72022Z" ></path>
  
  </symbol>

  <symbol fill="none" xmlns="http://www.w3.org/2000/svg" viewBox="0 0 26 32" id="doc">
    <path d="M17.3031 1.00771L24.9822 8.68675M6.71881 15.2049H19.2634M6.71881 24.5058H19.2634M6.71881 19.8554H19.2634M2.49927 1.00771C2.0982 1.01757 1.71689 1.18385 1.43675 1.47104C1.15662 1.75823 0.999879 2.14356 1 2.54475V29.5255C0.999874 29.9265 1.15651 30.3117 1.43648 30.5989C1.71645 30.8861 2.09757 31.0524 2.4985 31.0625H23.4837C23.8913 31.0625 24.2823 30.9006 24.5705 30.6123C24.8588 30.3241 25.0207 29.9331 25.0207 29.5255V8.68675H18.8718C18.4706 8.67689 18.0891 8.5105 17.809 8.22315C17.5288 7.93579 17.3722 7.55026 17.3725 7.14894V1L2.49927 1.00771Z" stroke="#6984F0" stroke-linecap="round" stroke-linejoin="round"></path>
  </symbol>

  <symbol fill="none" xmlns="http://www.w3.org/2000/svg" viewBox="0 0 16 24" id="footer-phone">
    <path d="M6.58071 17.9592C6.38843 17.9592 6.20402 18.0356 6.06806 18.1716C5.9321 18.3075 5.85571 18.4919 5.85571 18.6842C5.85571 18.8765 5.9321 19.0609 6.06806 19.1969C6.20402 19.3328 6.38843 19.4092 6.58071 19.4092H9.48071C9.67299 19.4092 9.8574 19.3328 9.99336 19.1969C10.1293 19.0609 10.2057 18.8765 10.2057 18.6842C10.2057 18.4919 10.1293 18.3075 9.99336 18.1716C9.8574 18.0356 9.67299 17.9592 9.48071 17.9592H6.58071Z" fill="#ffffff"></path>
    <path d="M3.68076 0.559204C2.91163 0.559204 2.17401 0.864739 1.63015 1.40859C1.0863 1.95245 0.780762 2.69008 0.780762 3.4592V20.8592C0.780762 21.6283 1.0863 22.366 1.63015 22.9098C2.17401 23.4537 2.91163 23.7592 3.68076 23.7592H12.3808C13.1499 23.7592 13.8875 23.4537 14.4314 22.9098C14.9752 22.366 15.2808 21.6283 15.2808 20.8592V3.4592C15.2808 2.69008 14.9752 1.95245 14.4314 1.40859C13.8875 0.864739 13.1499 0.559204 12.3808 0.559204H3.68076ZM2.23076 3.4592C2.23076 3.07464 2.38353 2.70583 2.65546 2.4339C2.92739 2.16197 3.2962 2.0092 3.68076 2.0092H12.3808C12.7653 2.0092 13.1341 2.16197 13.4061 2.4339C13.678 2.70583 13.8308 3.07464 13.8308 3.4592V20.8592C13.8308 21.2438 13.678 21.6126 13.4061 21.8845C13.1341 22.1564 12.7653 22.3092 12.3808 22.3092H3.68076C3.2962 22.3092 2.92739 22.1564 2.65546 21.8845C2.38353 21.6126 2.23076 21.2438 2.23076 20.8592V3.4592Z" fill="#ffffff"></path>
  </symbol>

    <symbol fill="none" xmlns="http://www.w3.org/2000/svg" viewBox="0 0 14 24" id="prev">
    <path fill-rule="evenodd" clip-rule="evenodd" d="M12.8696 0.880477C12.9511 0.961757 13.0157 1.05831 13.0598 1.16462C13.104 1.27092 13.1267 1.38488 13.1267 1.49998C13.1267 1.61507 13.104 1.72903 13.0598 1.83534C13.0157 1.94164 12.9511 2.0382 12.8696 2.11948L2.98735 12L12.8696 21.8805C13.0339 22.0448 13.1262 22.2676 13.1262 22.5C13.1262 22.7323 13.0339 22.9552 12.8696 23.1195C12.7053 23.2838 12.4825 23.3761 12.2501 23.3761C12.0177 23.3761 11.7949 23.2838 11.6306 23.1195L1.1306 12.6195C1.04911 12.5382 0.984463 12.4416 0.940352 12.3353C0.89624 12.229 0.873535 12.1151 0.873535 12C0.873535 11.8849 0.89624 11.7709 0.940352 11.6646C0.984463 11.5583 1.04911 11.4618 1.1306 11.3805L11.6306 0.880477C11.7119 0.798992 11.8084 0.734342 11.9147 0.69023C12.021 0.646119 12.135 0.623413 12.2501 0.623413C12.3652 0.623413 12.4792 0.646119 12.5855 0.69023C12.6918 0.734342 12.7883 0.798992 12.8696 0.880477Z" fill="#6984F0"></path>
  </symbol>
  


    <symbol fill="none" xmlns="http://www.w3.org/2000/svg" viewBox="0 0 14 15" id="detail">
    <path d="M12.25 1.78845H4.375C4.14315 1.78914 3.92099 1.88155 3.75705 2.0455C3.5931 2.20944 3.50069 2.4316 3.5 2.66345V8.78845C3.50069 9.0203 3.5931 9.24246 3.75705 9.40641C3.92099 9.57035 4.14315 9.66276 4.375 9.66345H12.25C12.4819 9.66276 12.704 9.57035 12.868 9.40641C13.0319 9.24246 13.1243 9.0203 13.125 8.78845V2.66345C13.1243 2.4316 13.0319 2.20944 12.868 2.0455C12.704 1.88155 12.4819 1.78914 12.25 1.78845V1.78845ZM12.25 8.78845H4.375V2.66345H12.25V8.78845Z" fill="white"></path>
    <path d="M7.875 11.4135H1.75V7.03845H2.625V6.16345H1.75C1.51815 6.16414 1.29599 6.25655 1.13205 6.4205C0.968102 6.58444 0.875692 6.8066 0.875 7.03845V11.4135C0.875692 11.6453 0.968102 11.8675 1.13205 12.0314C1.29599 12.1954 1.51815 12.2878 1.75 12.2885H7.875C8.10685 12.2878 8.32901 12.1954 8.49295 12.0314C8.6569 11.8675 8.74931 11.6453 8.75 11.4135V10.5385H7.875V11.4135Z" fill="white"></path>
  </symbol>
  <symbol fill="none" xmlns="http://www.w3.org/2000/svg" viewBox="0 0 14 15" id="detail2">
    <path d="M12.25 1.78809H4.375C4.14315 1.78878 3.92099 1.88119 3.75705 2.04513C3.5931 2.20908 3.50069 2.43123 3.5 2.66309V8.78809C3.50069 9.01994 3.5931 9.2421 3.75705 9.40604C3.92099 9.56998 4.14315 9.66239 4.375 9.66309H12.25C12.4819 9.66239 12.704 9.56998 12.868 9.40604C13.0319 9.2421 13.1243 9.01994 13.125 8.78809V2.66309C13.1243 2.43123 13.0319 2.20908 12.868 2.04513C12.704 1.88119 12.4819 1.78878 12.25 1.78809ZM12.25 8.78809H4.375V2.66309H12.25V8.78809Z" fill="#263057"></path>
    <path d="M7.875 11.4131H1.75V7.03809H2.625V6.16309H1.75C1.51815 6.16378 1.29599 6.25619 1.13205 6.42013C0.968102 6.58408 0.875692 6.80623 0.875 7.03809V11.4131C0.875692 11.6449 0.968102 11.8671 1.13205 12.031C1.29599 12.195 1.51815 12.2874 1.75 12.2881H7.875C8.10685 12.2874 8.32901 12.195 8.49295 12.031C8.6569 11.8671 8.74931 11.6449 8.75 11.4131V10.5381H7.875V11.4131Z" fill="#263057"></path>
  </symbol>

  <symbol fill="none" xmlns="http://www.w3.org/2000/svg" viewBox="0 0 22 23" id="speed">
    <path d="M9.43701 11.0395C9.43701 12.001 10.2112 12.7808 11.165 12.7808C11.8351 12.7808 12.4093 12.3927 12.696 11.8311L12.7008 11.8355L15.8552 6.10075L10.3176 9.52265L10.3228 9.52792C9.7969 9.82691 9.43701 10.388 9.43701 11.0395ZM18.1265 2.74252C16.3559 1.18304 14.068 0.187288 11.4538 0.0384521V2.68456C13.6323 2.82418 14.9159 3.52138 16.2047 4.60933L18.1265 2.74252ZM19.36 10.2146H21.9829C21.8068 7.58033 20.7843 5.41585 19.1966 3.64212L17.341 5.50058C18.459 6.79137 19.1944 8.45841 19.36 10.2146Z" fill="#6984F0"></path>
    <path d="M19.3723 11.5316C19.0948 15.9221 15.485 19.4041 11.0758 19.4041C6.48576 19.4041 2.61417 15.6529 2.61417 11.0281C2.61417 6.62534 6.22565 3.02299 10.1469 2.68493V0.0388184C4.48287 0.380833 0 5.18308 0 11.0395C0 17.1171 4.97564 22.0384 11.007 22.0384C16.8592 22.0384 21.7207 17.2392 22 11.5316H19.3723Z" fill="#6984F0"></path>
  </symbol>


   <symbol fill="none" xmlns="http://www.w3.org/2000/svg" viewBox="0 0 23 23" id="email">
    <path d="M17.9688 12.9375L16.9524 13.9538L18.8075 15.8125H12.9375C12.175 15.8125 11.4437 16.1154 10.9046 16.6546C10.3654 17.1937 10.0625 17.925 10.0625 18.6875C10.0625 19.45 10.3654 20.1813 10.9046 20.7204C11.4437 21.2596 12.175 21.5625 12.9375 21.5625H14.375V20.125H12.9375C12.5563 20.125 12.1906 19.9735 11.921 19.704C11.6515 19.4344 11.5 19.0687 11.5 18.6875C11.5 18.3063 11.6515 17.9406 11.921 17.671C12.1906 17.4015 12.5563 17.25 12.9375 17.25H18.8075L16.951 19.1094L17.9688 20.125L21.5625 16.5312L17.9688 12.9375Z" fill="#263057"></path>
    <path d="M7.1875 15.8125H2.875L2.87284 4.96369L11.091 10.6533C11.2112 10.7365 11.3539 10.781 11.5 10.781C11.6461 10.781 11.7888 10.7365 11.909 10.6533L20.125 4.96656V11.5H21.5625V4.3125C21.5621 3.93137 21.4105 3.56596 21.141 3.29645C20.8715 3.02695 20.5061 2.87538 20.125 2.875H2.875C2.49412 2.875 2.12882 3.02615 1.8593 3.29527C1.58977 3.56439 1.43807 3.92947 1.4375 4.31034V15.8125C1.43807 16.1936 1.5897 16.5589 1.85916 16.8283C2.12862 17.0978 2.49393 17.2494 2.875 17.25H7.1875V15.8125ZM18.543 4.3125L11.5 9.1885L4.45697 4.3125H18.543Z" fill="#263057"></path>
  </symbol>
  <symbol fill="none" xmlns="http://www.w3.org/2000/svg" viewBox="0 0 26 26" id="marker">
    <path d="M12.9997 4.85352C12.1812 4.85352 11.3811 5.09622 10.7005 5.55095C10.02 6.00568 9.48956 6.652 9.17634 7.40818C8.86312 8.16436 8.78117 8.99644 8.94085 9.7992C9.10053 10.602 9.49466 11.3393 10.0734 11.9181C10.6522 12.4969 11.3896 12.891 12.1923 13.0507C12.9951 13.2103 13.8272 13.1284 14.5833 12.8152C15.3395 12.502 15.9858 11.9715 16.4406 11.291C16.8953 10.6104 17.138 9.81033 17.138 8.99185C17.138 7.8943 16.702 6.84169 15.9259 6.06561C15.1498 5.28952 14.0972 4.85352 12.9997 4.85352ZM12.9997 11.6857C12.4669 11.6857 11.946 11.5277 11.503 11.2317C11.06 10.9357 10.7147 10.515 10.5108 10.0228C10.3069 9.53051 10.2536 8.98886 10.3575 8.4663C10.4615 7.94373 10.718 7.46373 11.0948 7.08698C11.4715 6.71023 11.9515 6.45367 12.4741 6.34972C12.9967 6.24578 13.5383 6.29913 14.0306 6.50302C14.5228 6.70691 14.9435 7.0522 15.2395 7.4952C15.5356 7.93821 15.6936 8.45905 15.6936 8.99185C15.6916 9.70506 15.407 10.3884 14.902 10.892C14.397 11.3957 13.7129 11.6785 12.9997 11.6785V11.6857Z" fill="#263057"></path>
    <path d="M13 1.44434C10.7504 1.44621 8.59295 2.33822 6.99888 3.92553C5.40481 5.51283 4.50363 7.66645 4.49219 9.916C4.49219 13.2888 6.38441 16.1127 7.77108 18.171L8.02385 18.5466C9.4035 20.5461 10.8835 22.4745 12.4583 24.3243L13.0072 24.9671L13.5561 24.3243C15.1306 22.4744 16.6107 20.546 17.9905 18.5466L18.2433 18.1638C19.6227 16.1054 21.515 13.2888 21.515 9.916C21.5035 7.6652 20.6013 5.51049 19.0057 3.92298C17.4101 2.33547 15.2508 1.44431 13 1.44434ZM17.0372 17.3332L16.7772 17.716C15.535 19.5793 13.8883 21.6666 13 22.6993C12.1477 21.6666 10.465 19.5793 9.22274 17.716L8.96997 17.3332C7.69163 15.4266 5.93663 12.8193 5.93663 9.88711C5.93663 8.95954 6.11933 8.04106 6.4743 7.18409C6.82926 6.32713 7.34954 5.54847 8.00543 4.89258C8.66133 4.23669 9.43998 3.71641 10.2969 3.36144C11.1539 3.00648 12.0724 2.82378 13 2.82378C13.9275 2.82378 14.846 3.00648 15.703 3.36144C16.5599 3.71641 17.3386 4.23669 17.9945 4.89258C18.6504 5.54847 19.1707 6.32713 19.5256 7.18409C19.8806 8.04106 20.0633 8.95954 20.0633 9.88711C20.0633 12.8482 18.3155 15.4554 17.0372 17.3332Z" fill="#263057"></path>
  </symbol>
  <symbol fill="none" xmlns="http://www.w3.org/2000/svg" viewBox="0 0 33 33" id="telegram-blue">
    <path fill-rule="evenodd" clip-rule="evenodd" d="M32.5407 16.5C32.5407 25.1195 25.3525 32.1081 16.4867 32.1081C7.62082 32.1081 0.432617 25.1195 0.432617 16.5C0.432617 7.88038 7.62082 0.891846 16.4867 0.891846C25.3525 0.891846 32.5407 7.88038 32.5407 16.5ZM17.0619 12.4145C15.5007 13.0454 12.3795 14.3525 7.69975 16.3348C6.93986 16.6287 6.54118 16.9162 6.50506 17.1971C6.44352 17.6732 7.05625 17.8605 7.88839 18.1141C8.0021 18.1492 8.11983 18.1843 8.24024 18.2234C9.06033 18.4822 10.1627 18.7852 10.7353 18.7969C11.2557 18.8074 11.8363 18.5992 12.4772 18.1726C16.8492 15.302 19.1062 13.8518 19.248 13.8206C19.3483 13.7985 19.4874 13.7698 19.5811 13.8518C19.6747 13.9324 19.6654 14.0859 19.656 14.1275C19.5945 14.3786 17.1944 16.5494 15.9502 17.6732C15.5622 18.023 15.288 18.2715 15.2318 18.3287C15.106 18.4549 14.9776 18.5758 14.8545 18.6916C14.0919 19.4044 13.522 19.9402 14.8866 20.8143C15.5422 21.2344 16.0666 21.5817 16.5897 21.9277C17.1609 22.3062 17.7309 22.6834 18.4693 23.1542C18.6566 23.2739 18.8359 23.3974 19.0112 23.5184C19.6761 23.9801 20.2741 24.3938 21.0126 24.3287C21.4407 24.2897 21.8848 23.8982 22.1096 22.7289C22.6407 19.9637 23.6869 13.9753 23.9291 11.5067C23.9438 11.3017 23.9348 11.0958 23.9023 10.8927C23.8828 10.7288 23.8007 10.5779 23.6722 10.47C23.4809 10.3178 23.1839 10.2853 23.0501 10.2879C22.4467 10.2983 21.521 10.6118 17.0619 12.4145Z" fill="#6984F0"></path>
  </symbol>
  <symbol fill="none" xmlns="http://www.w3.org/2000/svg" viewBox="0 0 32 33" id="viber-blue">
    <path fill-rule="evenodd" clip-rule="evenodd" d="M3.29856 4.19321C6.47244 1.3502 12.1471 0.926721 14.7866 0.895596C15.6643 0.880543 16.2101 0.915667 16.2101 0.915667C23.5651 0.941774 26.8573 3.284 27.6764 4.0206H27.6929C30.4074 6.3207 31.911 11.4056 30.8997 19.476C30.0008 26.6021 24.9054 27.8557 23.2024 28.2747C23.0379 28.3152 22.9051 28.3479 22.8107 28.3773C22.3451 28.5238 18.3027 29.5113 13.0248 29.0828L11.1079 31.1992C10.9318 31.3828 10.7679 31.5643 10.6116 31.7372C9.8555 32.5737 9.2792 33.2113 8.38322 32.9343C7.5054 32.6684 7.55374 31.3718 7.55374 31.3718V28.1314C-0.160061 26.0039 -0.0634617 18.1905 0.0167566 14.0298C0.113356 9.85413 0.937621 6.47725 3.29856 4.19321ZM15.3968 7.3426C15.4467 7.32288 15.5002 7.313 15.554 7.31353C17.9786 7.31353 20.0404 8.11234 21.6675 9.66481C22.5023 10.5069 23.153 11.506 23.5801 12.6013C24.0072 13.6966 24.2016 14.8653 24.1517 16.0362C24.1507 16.1422 24.1067 16.2434 24.0295 16.3178C23.9523 16.3923 23.8481 16.4339 23.7395 16.4336V16.4497C23.5093 16.4497 23.3274 16.267 23.3274 16.0473C23.2996 13.5595 22.572 11.6568 21.0785 10.2408C20.3471 9.54778 19.4823 9.00295 18.5341 8.63782C17.5859 8.27267 16.573 8.09442 15.554 8.11334C15.3289 8.11334 15.1418 7.93572 15.1418 7.71092C15.142 7.65836 15.1527 7.60632 15.1736 7.55785C15.1944 7.50936 15.2248 7.46537 15.2631 7.42845C15.3015 7.3915 15.3469 7.36232 15.3968 7.3426ZM9.29558 8.39534C9.54868 8.24928 9.84538 8.19227 10.1363 8.23376L10.1343 8.23176C10.4059 8.28213 10.6506 8.42467 10.8249 8.63417C11.6227 9.52285 12.3291 10.4858 12.9341 11.5093C13.3298 12.1947 13.0728 12.8891 12.7038 13.1822L11.933 13.7883C11.5373 14.0813 11.5907 14.6564 11.5907 14.6564C11.5907 14.6564 12.7316 18.8842 17.0083 19.951L17.0248 19.941C17.0248 19.941 17.5983 19.9931 17.9139 19.6168L18.5295 18.8592C18.8183 18.4828 19.5306 18.258 20.2316 18.6293C21.2784 19.2241 22.2644 19.9154 23.1763 20.6936C23.6316 21.0649 23.7386 21.6138 23.423 22.1939V22.2039C23.0868 22.7805 22.6563 23.2994 22.1485 23.7403C21.7317 24.1098 21.2001 24.3324 20.6386 24.3726C20.4618 24.3726 20.286 24.3465 20.0928 24.2893V24.2792C19.434 24.0906 18.3363 23.636 16.5273 22.6746C14.9446 21.8199 13.4801 20.7715 12.1694 19.5546L12.1262 19.5185L12.0892 19.4763L12.0306 19.4342L11.9936 19.382C10.7509 18.1069 9.68205 16.6805 8.81355 15.1381C8.13928 14.0402 7.58731 12.8741 7.16494 11.6618L7.1382 11.6458C7.06312 11.411 7.0416 11.1651 7.07339 10.9192C7.12687 10.5068 7.33035 10.0783 7.7055 9.65478C8.15694 9.15673 8.68635 8.73166 9.27398 8.39534H9.29558ZM16.2704 10.2308C15.7195 10.2308 15.7195 9.42596 16.2653 9.42596H16.3238C18.1071 9.54539 19.5039 10.1465 20.505 11.2183C21.501 12.29 22.0087 13.6277 21.9717 15.2224C21.9709 15.3288 21.9272 15.4307 21.8501 15.506C21.773 15.5813 21.6686 15.624 21.5596 15.6248L21.5431 15.6037C21.4672 15.6033 21.3935 15.5827 21.3298 15.5447C21.3025 15.5286 21.2771 15.5093 21.254 15.487C21.177 15.4128 21.1328 15.312 21.1309 15.2063C21.1718 14.5818 21.0839 13.9556 20.8724 13.3649C20.6609 12.7741 20.3301 12.2308 19.8996 11.7672C19.4277 11.2909 18.8643 10.91 18.2416 10.6464C17.6188 10.3828 16.949 10.2415 16.2704 10.2308ZM16.9138 12.4105C16.3567 12.3944 16.3783 11.5735 16.9405 11.5896L16.9569 11.5906C18.734 11.6839 19.7352 12.6935 19.8318 14.4858C19.8351 14.5394 19.8275 14.5931 19.8093 14.6438C19.7912 14.6945 19.7628 14.7411 19.726 14.781C19.6891 14.8209 19.6445 14.8533 19.5948 14.8761C19.545 14.899 19.491 14.912 19.4361 14.9143H19.4196C19.3127 14.9138 19.2103 14.8724 19.1342 14.7991C19.0581 14.7257 19.0145 14.6263 19.0126 14.5219C18.9263 13.1471 18.2685 12.4787 16.9138 12.4105Z" fill="#6984F0"></path>
  </symbol>
  <symbol fill="none" xmlns="http://www.w3.org/2000/svg" viewBox="0 0 33 33" id="vk-blue">
    <path d="M16.432 0C7.56546 0 0.37793 7.18753 0.37793 16.0541C0.37793 24.9206 7.56546 32.1081 16.432 32.1081C25.2985 32.1081 32.486 24.9206 32.486 16.0541C32.486 7.18753 25.2985 0 16.432 0ZM22.6061 18.1127C22.6061 18.1127 24.0259 19.514 24.3754 20.1646C24.3854 20.1779 24.3904 20.1913 24.3938 20.198C24.5359 20.4371 24.5694 20.6228 24.4991 20.7616C24.3821 20.9923 23.9807 21.1061 23.8436 21.1161H21.3352C21.1612 21.1161 20.7967 21.0709 20.3552 20.7666C20.0157 20.5291 19.6813 20.1395 19.3552 19.7599C18.8685 19.1946 18.4471 18.7063 18.0223 18.7063C17.9684 18.7062 17.9148 18.7147 17.8635 18.7314C17.5424 18.8351 17.131 19.2933 17.131 20.5141C17.131 20.8954 16.83 21.1144 16.6176 21.1144H15.4687C15.0774 21.1144 13.0389 20.9773 11.2328 19.0726C9.02203 16.7397 7.032 12.0606 7.01528 12.0171C6.88985 11.7144 7.14906 11.5522 7.43168 11.5522H9.96521C10.303 11.5522 10.4134 11.7579 10.4903 11.9402C10.5806 12.1526 10.9117 12.9971 11.4552 13.947C12.3365 15.4955 12.8767 16.1243 13.3098 16.1243C13.391 16.1233 13.4708 16.1027 13.5423 16.0641C14.1075 15.7497 14.0021 13.7346 13.9771 13.3165C13.9771 13.2379 13.9754 12.4151 13.6861 12.0205C13.4787 11.7345 13.1259 11.6258 12.9118 11.5857C12.9984 11.4661 13.1126 11.3692 13.2446 11.3031C13.6326 11.1091 14.3316 11.0806 15.0256 11.0806H15.4119C16.1644 11.0907 16.3584 11.1392 16.631 11.2077C17.1828 11.3398 17.1946 11.696 17.1461 12.9152C17.131 13.2613 17.116 13.6526 17.116 14.1142C17.116 14.2145 17.1109 14.3216 17.1109 14.4353C17.0942 15.0557 17.0741 15.7597 17.5123 16.049C17.5694 16.0849 17.6355 16.104 17.7029 16.1042C17.8551 16.1042 18.3133 16.1042 19.5542 13.9754C19.9368 13.2902 20.2694 12.5781 20.5492 11.8449C20.5743 11.8014 20.6478 11.6676 20.7348 11.6158C20.799 11.5831 20.8701 11.5664 20.9422 11.5673H23.9205C24.245 11.5673 24.4674 11.6158 24.5092 11.7412C24.5828 11.9402 24.4958 12.5472 23.1362 14.3884L22.5292 15.1895C21.2967 16.8049 21.2967 16.8869 22.6061 18.1127Z" fill="#6984F0"></path>
  </symbol>
  <symbol fill="none" xmlns="http://www.w3.org/2000/svg" viewBox="0 0 32 33" id="wa-blue">
    <path d="M0.168373 32.108L2.27859 24.3539C0.888122 21.9704 0.157598 19.2594 0.16213 16.4999C0.16213 7.87959 7.14988 0.891846 15.7702 0.891846C24.3906 0.891846 31.3783 7.87959 31.3783 16.4999C31.3783 25.1203 24.3906 32.108 15.7702 32.108C13.0119 32.1125 10.3022 31.3825 7.91935 29.9931L0.168373 32.108ZM10.1373 9.17662C9.93571 9.18914 9.73875 9.24223 9.55821 9.33271C9.38889 9.42859 9.23433 9.54845 9.09933 9.68857C8.91203 9.86494 8.8059 10.0179 8.69196 10.1662C8.1151 10.9169 7.80481 11.8385 7.8101 12.7852C7.81322 13.55 8.013 14.2945 8.32517 14.9906C8.96354 16.3985 10.014 17.8891 11.4015 19.2704C11.7355 19.6028 12.0617 19.9368 12.4129 20.2474C14.1351 21.7637 16.1874 22.8572 18.4064 23.4409L19.2945 23.5767C19.5833 23.5923 19.872 23.5704 20.1623 23.5564C20.6169 23.5329 21.0608 23.4098 21.4625 23.1958C21.6669 23.0905 21.8664 22.976 22.0603 22.8524C22.0603 22.8524 22.1274 22.8087 22.2554 22.712C22.4661 22.5559 22.5957 22.4451 22.7705 22.2625C22.9 22.1282 23.0124 21.9706 23.0982 21.7911C23.22 21.5367 23.3417 21.0513 23.3917 20.647C23.4291 20.338 23.4182 20.1694 23.4135 20.0648C23.4073 19.8978 23.2684 19.7246 23.117 19.6512L22.2086 19.2438C22.2086 19.2438 20.8507 18.6523 20.0219 18.2746C19.9345 18.2365 19.8408 18.2148 19.7456 18.2106C19.6388 18.1996 19.5309 18.2116 19.4292 18.2458C19.3274 18.28 19.2341 18.3356 19.1556 18.4088V18.4057C19.1478 18.4057 19.0432 18.4947 17.9148 19.8619C17.85 19.949 17.7608 20.0147 17.6585 20.0509C17.5562 20.087 17.4455 20.0919 17.3404 20.0648C17.2387 20.0376 17.1391 20.0032 17.0423 19.9618C16.8487 19.8807 16.7816 19.8494 16.649 19.7917L16.6412 19.7886C15.7482 19.3987 14.9215 18.8721 14.1907 18.2278C13.994 18.0561 13.8114 17.8688 13.6241 17.6877C13.0101 17.0997 12.4749 16.4344 12.0321 15.7086L11.94 15.5603C11.8739 15.4607 11.8204 15.3532 11.7808 15.2404C11.7215 15.0109 11.876 14.8268 11.876 14.8268C11.876 14.8268 12.2553 14.4116 12.4317 14.1868C12.5785 14 12.7155 13.8057 12.8421 13.6046C13.0263 13.3081 13.0841 13.0037 12.9873 12.768C12.5503 11.7005 12.0976 10.6375 11.6325 9.58243C11.5404 9.37329 11.2673 9.22345 11.0191 9.19379C10.9348 9.18443 10.8506 9.17506 10.7663 9.16882C10.5567 9.15841 10.3466 9.16049 10.1373 9.17506V9.17662Z" fill="#6984F0"></path>
  </symbol>
</svg>



