<svg width="32" height="33" viewBox="0 0 32 33" fill="none" xmlns="http://www.w3.org/2000/svg">
<path d="M0.168373 32.108L2.27859 24.3539C0.888122 21.9704 0.157598 19.2594 0.16213 16.4999C0.16213 7.87959 7.14988 0.891846 15.7702 0.891846C24.3906 0.891846 31.3783 7.87959 31.3783 16.4999C31.3783 25.1203 24.3906 32.108 15.7702 32.108C13.0119 32.1125 10.3022 31.3825 7.91935 29.9931L0.168373 32.108ZM10.1373 9.17662C9.93571 9.18914 9.73875 9.24223 9.55821 9.33271C9.38889 9.42859 9.23433 9.54845 9.09933 9.68857C8.91203 9.86494 8.8059 10.0179 8.69196 10.1662C8.1151 10.9169 7.80481 11.8385 7.8101 12.7852C7.81322 13.55 8.013 14.2945 8.32517 14.9906C8.96354 16.3985 10.014 17.8891 11.4015 19.2704C11.7355 19.6028 12.0617 19.9368 12.4129 20.2474C14.1351 21.7637 16.1874 22.8572 18.4064 23.4409L19.2945 23.5767C19.5833 23.5923 19.872 23.5704 20.1623 23.5564C20.6169 23.5329 21.0608 23.4098 21.4625 23.1958C21.6669 23.0905 21.8664 22.976 22.0603 22.8524C22.0603 22.8524 22.1274 22.8087 22.2554 22.712C22.4661 22.5559 22.5957 22.4451 22.7705 22.2625C22.9 22.1282 23.0124 21.9706 23.0982 21.7911C23.22 21.5367 23.3417 21.0513 23.3917 20.647C23.4291 20.338 23.4182 20.1694 23.4135 20.0648C23.4073 19.8978 23.2684 19.7246 23.117 19.6512L22.2086 19.2438C22.2086 19.2438 20.8507 18.6523 20.0219 18.2746C19.9345 18.2365 19.8408 18.2148 19.7456 18.2106C19.6388 18.1996 19.5309 18.2116 19.4292 18.2458C19.3274 18.28 19.2341 18.3356 19.1556 18.4088V18.4057C19.1478 18.4057 19.0432 18.4947 17.9148 19.8619C17.85 19.949 17.7608 20.0147 17.6585 20.0509C17.5562 20.087 17.4455 20.0919 17.3404 20.0648C17.2387 20.0376 17.1391 20.0032 17.0423 19.9618C16.8487 19.8807 16.7816 19.8494 16.649 19.7917L16.6412 19.7886C15.7482 19.3987 14.9215 18.8721 14.1907 18.2278C13.994 18.0561 13.8114 17.8688 13.6241 17.6877C13.0101 17.0997 12.4749 16.4344 12.0321 15.7086L11.94 15.5603C11.8739 15.4607 11.8204 15.3532 11.7808 15.2404C11.7215 15.0109 11.876 14.8268 11.876 14.8268C11.876 14.8268 12.2553 14.4116 12.4317 14.1868C12.5785 14 12.7155 13.8057 12.8421 13.6046C13.0263 13.3081 13.0841 13.0037 12.9873 12.768C12.5503 11.7005 12.0976 10.6375 11.6325 9.58243C11.5404 9.37329 11.2673 9.22345 11.0191 9.19379C10.9348 9.18443 10.8506 9.17506 10.7663 9.16882C10.5567 9.15841 10.3466 9.16049 10.1373 9.17506V9.17662Z" fill="#6984F0"/>
</svg>
